<?xml version="1.0" encoding="UTF-8"?>
<svg id="Capa_2" data-name="Capa 2" xmlns="http://www.w3.org/2000/svg" viewBox="0 0 205.16 37.33">
  <defs>
    <style>
      .cls-1, .cls-2 {
        fill: #fff;
      }

      .cls-2 {
        font-family: Poppins-Medium, Poppins;
        font-size: 8.32px;
        font-weight: 500;
      }
    </style>
  </defs>
  <g id="Capa_5" data-name="Capa 5">
    <g>
      <path class="cls-1" d="M38.5,20.33c-2.2,2.12,1.57,1.62-3.28,5.1-.78.56-.74,1.08-1.11,1.81-.48.95-1.53,2.22-2.4,2.91-1.88,1.48-4.25,1.73-6.55,2.07-6.64.98-12.49-.73-17.82-4.64C3.04,24.42.21,19.65,0,14.18l1.07,2.91c-.38-2.28-.4-4.3.26-6.41l.04,2.5c0,.08,1.19,6.71,2.13,6.73-1.43-3.41-2.05-7.06-.63-10.47.82-1.97,2.1-3.96,4.26-4.63-3.57,3.56-4.75,8.31-3.05,12.84.39,1.03.73,2,1.49,2.73-1.16-2.68-2.29-5.32-1.38-8.42.55,6.52,4.39,11.77,10.61,13.69.25.09.64.24.72.25l-1.84-1.12c-3.05-1.86-5.86-4.39-6.79-8,.66.3.9.99,1.28,1.47,2.66,2.62,5.96,4,9.56,4.75,2.02.42,3.93.79,6.03.53,6.03-.75,10.22-2.65,15.52-5.62.24.9-.15,1.79-.8,2.41Z"/>
      <polygon class="cls-1" points="73.3 21.56 68.64 21.64 59.62 9.04 59.63 21.61 55.39 21.6 55.38 .61 60.05 .52 69.07 13.17 69.09 .51 73.31 .52 73.3 21.56"/>
      <polygon class="cls-1" points="117.95 21.64 112.32 21.62 112.3 12.37 104.66 12.39 104.54 21.63 99.16 21.62 99.14 3.65 99.12 .54 104.58 .5 104.63 8.81 112.3 8.77 112.37 .52 117.96 .52 117.95 21.64"/>
      <path class="cls-1" d="M182.71,21.6l-6.75.06-4.51-8.23-1.99-.02v8.21s-5.39-.03-5.39-.03l.02-21.06h5.58c2.36,0,4.76-.08,6.99.46,2.36.58,3.48,2.5,3.51,4.77.03,2.69-1.33,4.79-3.84,6.13.37.67.77,1.39,1.19,2.01l5.18,7.7ZM173.04,9.4c1.49-1.03,1.71-3.65.37-4.76-1.1-.92-2.66-.57-3.97-.59l.04,6.03c1.26.04,2.49.05,3.56-.68Z"/>
      <path class="cls-1" d="M153.8,18.62l.02-7.19,5.62-.04.02,9.81c-6.45,1.69-15.58,1.99-18.31-5.62-1.01-2.81-1.02-6.05-.04-8.9,1.28-3.74,4.66-6.08,8.5-6.48,3.38-.35,6.49-.3,9.81.45v3.79c-4.62-1.35-10.93-2.02-12.29,3.68-.67,2.8-.54,5.95,1.37,8.22,1.3,1.54,3.36,1.95,5.3,2.28Z"/>
      <path class="cls-1" d="M197.6,16.28l-8.14-.03-2.15,5.3c-1.29.14-2.52.13-3.91-.03L191.82.56l5.64-.05,7.7,21.07-5.55.09-2.01-5.4ZM196.33,12.93c-.36-1.25-.67-2.13-1.07-3.16l-1.56-4.04-2.86,7.2h5.49Z"/>
      <path class="cls-1" d="M15.29,12.89c2.32,1.89,5.11,2.83,7.98,2.23,1.05-.22,2.17-.65,2.52-1.7-2.69,2.61-8.13,1.36-9.06-1.35l1.04.4c.18.07.56-.16.64-.29l-.64-.66c-.16-.17.08-.75.29-.93l1.42.58c.21.08.68.04.86-.03,1.27-.5-2.1-4.25-5.96-3.15-.27-2.09.91-3.9,2.57-5.05,1.78-1.23,3.81-1.62,5.85-1.06s4.02,1.48,5.56,3.03c2.18,2.19,3.29,4.83,2.64,8.04-.53,2.61-2.58,4.96-5.41,6.08-3.35,1.32-7.11.87-10.11-.89l1.52-.14-1.64-1.26.68-.52c.28-.21,5.73,2.91,9.84-.14-2.24.72-4.09,1.42-6.31.76-2.77-.83-5.43-2.26-6.54-5.24.84.31,1.56.72,2.25,1.29ZM27.96,13.8c.23-.33.4-.67.54-1.03.56-1.46.38-3.1-.34-4.48s-1.78-2.54-3.25-3.27l1.68,1.64c1.99,1.94,2.29,4.46,1.37,7.14ZM25.99,13.28c1.37-1.15,1.22-3.08.41-4.3.27,1.64.18,2.98-.41,4.3ZM23.36,10.04c.3.81.58,1.38.92,1.99,1.05-.82.52-1.75.28-2.47v.62c-.01.31-.36.48-.61.3l-.59-.44Z"/>
      <path class="cls-1" d="M135.82,12.36l-7.31.02v5.79s9.41-.02,9.41-.02c.18,1.2.21,2.24.03,3.49h-14.95s-.05-21.11-.05-21.11h14.3c.09,1.16.09,2.18.02,3.46l-8.75.03v5.16s7.23-.03,7.23-.03c.23,1.01.23,2.1.08,3.21Z"/>
      <polygon class="cls-1" points="89.03 21.57 83.41 21.62 83.4 4.47 76.15 4.41 76.23 .53 96.31 .53 96.3 4.41 89.05 4.44 89.03 21.57"/>
      <polygon class="cls-1" points="50.4 21.56 44.7 21.65 44.7 .51 50.41 .52 50.4 21.56"/>
    </g>
    <text class="cls-2" transform="translate(43.69 32.49)"><tspan x="0" y="0">Your Expert Oracle Services Partner</tspan></text>
  </g>
</svg>