<svg xmlns="http://www.w3.org/2000/svg" version="1.0" width="175.583992pt" height="137.572781pt" viewBox="0 0 175.583992 137.572781" preserveAspectRatio="xMidYMid meet">
<metadata fill="#179dca">
Created by potrace 1.12, written by Peter Selinger 2001-2015
</metadata>
<g transform="translate(-20.117332,154.132873) scale(0.100000,-0.100000)" fill="#179dca" stroke="none">
<path d="M1005 1516 c-92 -42 -155 -116 -170 -198 l-7 -36 59 5 c50 5 66 2 108 -20 65 -34 125 -90 125 -116 0 -33 -33 -44 -76 -26 -20 8 -40 15 -44 15 -16 0 -3 -33 20 -52 12 -10 21 -20 18 -23 -10 -11 -68 -8 -85 4 -10 8 1 -4 23 -27 89 -87 281 -95 357 -14 47 50 53 105 21 212 -7 22 -6 24 9 12 26 -21 50 -97 43 -133 -30 -150 -177 -221 -358 -174 -63 16 -182 85 -260 150 -27 22 -22 7 16 -44 49 -66 83 -95 150 -130 117 -60 265 -67 365 -17 54 28 91 59 91 76 0 6 4 10 9 10 4 0 16 28 26 62 27 96 7 193 -52 254 -40 41 -116 104 -125 104 -4 0 -8 5 -8 10 0 15 27 12 47 -4 10 -8 42 -33 71 -56 40 -31 61 -58 83 -103 40 -84 40 -151 0 -232 -34 -67 -53 -95 -69 -95 -5 0 -13 -7 -16 -16 -3 -8 -27 -24 -53 -35 -27 -11 -59 -26 -72 -32 -14 -7 -63 -11 -115 -11 -73 1 -103 7 -155 28 -42 17 -67 22 -71 16 -4 -6 -15 -8 -26 -5 -10 4 2 -6 28 -22 27 -15 48 -31 48 -34 0 -3 -10 -11 -22 -16 -21 -10 -18 -12 32 -28 30 -10 100 -20 156 -22 165 -8 269 30 363 132 63 70 86 133 86 240 0 119 -21 169 -108 258 -136 139 -330 195 -462 133z m190 -123 c35 -17 52 -52 18 -38 -10 4 -36 12 -58 18 -22 5 -46 11 -53 13 -7 2 -10 8 -7 14 9 15 60 12 100 -7z m44 -203 l43 -40 -6 35 c-8 38 7 48 24 16 22 -42 6 -121 -25 -121 -8 0 -15 -6 -15 -14 0 -14 -21 -26 -43 -26 -7 1 1 12 17 25 l30 24 -23 50 c-13 27 -32 52 -42 54 -18 5 -28 37 -11 37 4 0 27 -18 51 -40z" fill="#179dca"/>
<path d="M433 1367 c-66 -54 -84 -78 -119 -157 -28 -62 -29 -72 -28 -205 1 -128 3 -146 27 -204 28 -68 33 -91 18 -91 -16 0 -49 82 -77 190 -14 58 -29 107 -32 110 -2 3 -2 -38 1 -90 5 -84 4 -93 -9 -76 -18 26 -18 21 7 -59 84 -274 337 -491 684 -587 144 -40 311 -43 480 -9 160 32 213 59 280 141 32 39 55 77 55 91 1 17 16 36 52 64 94 74 109 93 106 136 -1 28 4 47 20 66 28 35 66 113 58 120 -3 3 -23 -6 -43 -20 -52 -36 -236 -121 -341 -159 -276 -98 -494 -97 -764 1 -85 31 -232 124 -272 172 -50 59 -16 -15 45 -97 50 -68 114 -123 223 -191 109 -68 101 -62 93 -69 -7 -7 -98 26 -166 60 -113 58 -244 191 -304 310 -16 31 -36 92 -45 136 -18 88 -35 108 -26 33 11 -104 38 -187 95 -297 11 -21 17 -41 14 -44 -17 -17 -106 146 -130 236 -19 76 -19 211 0 285 22 84 50 135 108 195 28 28 49 52 47 51 -3 0 -28 -19 -57 -42z" fill="#179dca"/>
</g>
</svg>