<?xml version="1.0" standalone="no"?>
<!DOCTYPE svg PUBLIC "-//W3C//DTD SVG 1.1//EN" "http://www.w3.org/Graphics/SVG/1.1/DTD/svg11.dtd">
<svg xmlns="http://www.w3.org/2000/svg" xmlns:xlink="http://www.w3.org/1999/xlink" id="Capa_1" data-name="Capa 1" viewBox="0 0 424.85 563.74" width="424.8500061035156" height="563.739990234375">
  <defs>
    <style>
      .cls-1 {
        fill: url(#Degradado_sin_nombre_1468-12);
      }

      .cls-1, .cls-2, .cls-3, .cls-4, .cls-5, .cls-6, .cls-7, .cls-8, .cls-9, .cls-10, .cls-11, .cls-12, .cls-13, .cls-14, .cls-15, .cls-16, .cls-17, .cls-18, .cls-19, .cls-20, .cls-21, .cls-22, .cls-23, .cls-24, .cls-25, .cls-26, .cls-27, .cls-28, .cls-29, .cls-30, .cls-31, .cls-32, .cls-33, .cls-34, .cls-35, .cls-36, .cls-37, .cls-38, .cls-39, .cls-40, .cls-41, .cls-42, .cls-43, .cls-44, .cls-45, .cls-46 {
        stroke-width: 0px;
      }

      .cls-2 {
        fill: url(#Degradado_sin_nombre_1468-4);
      }

      .cls-3 {
        fill: url(#Degradado_sin_nombre_1468-10);
      }

      .cls-4 {
        fill: url(#Degradado_sin_nombre_1468-29);
      }

      .cls-5 {
        fill: url(#Degradado_sin_nombre_1468-40);
      }

      .cls-6 {
        fill: url(#Degradado_sin_nombre_1468-25);
      }

      .cls-7 {
        fill: url(#Degradado_sin_nombre_1468-46);
      }

      .cls-8 {
        fill: url(#Degradado_sin_nombre_1468-31);
      }

      .cls-9 {
        fill: url(#Degradado_sin_nombre_1468-36);
      }

      .cls-10 {
        fill: url(#Degradado_sin_nombre_1468-22);
      }

      .cls-11 {
        fill: url(#Degradado_sin_nombre_1468-42);
      }

      .cls-12 {
        fill: url(#Degradado_sin_nombre_1468-41);
      }

      .cls-13 {
        fill: url(#Degradado_sin_nombre_1468-30);
      }

      .cls-14 {
        fill: url(#Degradado_sin_nombre_1468-34);
      }

      .cls-15 {
        fill: url(#Degradado_sin_nombre_1468-6);
      }

      .cls-16 {
        fill: url(#Degradado_sin_nombre_1468-15);
      }

      .cls-17 {
        fill: url(#Degradado_sin_nombre_1468-5);
      }

      .cls-18 {
        fill: url(#Degradado_sin_nombre_1468-33);
      }

      .cls-19 {
        fill: url(#Degradado_sin_nombre_1468-7);
      }

      .cls-20 {
        fill: url(#Degradado_sin_nombre_1468-17);
      }

      .cls-21 {
        fill: url(#Degradado_sin_nombre_1468-37);
      }

      .cls-22 {
        fill: url(#Degradado_sin_nombre_1468-28);
      }

      .cls-23 {
        fill: url(#Degradado_sin_nombre_1468-23);
      }

      .cls-24 {
        fill: url(#Degradado_sin_nombre_1468);
      }

      .cls-25 {
        fill: url(#Degradado_sin_nombre_1468-27);
      }

      .cls-26 {
        fill: url(#Degradado_sin_nombre_1468-39);
      }

      .cls-27 {
        fill: url(#Degradado_sin_nombre_1468-20);
      }

      .cls-28 {
        fill: url(#Degradado_sin_nombre_1468-21);
      }

      .cls-29 {
        fill: url(#Degradado_sin_nombre_1468-2);
      }

      .cls-30 {
        fill: url(#Degradado_sin_nombre_1468-26);
      }

      .cls-31 {
        fill: url(#Degradado_sin_nombre_1468-3);
      }

      .cls-32 {
        fill: url(#Degradado_sin_nombre_1468-16);
      }

      .cls-33 {
        fill: url(#Degradado_sin_nombre_1468-18);
      }

      .cls-34 {
        fill: url(#Degradado_sin_nombre_1468-32);
      }

      .cls-35 {
        fill: url(#Degradado_sin_nombre_1468-35);
      }

      .cls-36 {
        fill: url(#Degradado_sin_nombre_1468-44);
      }

      .cls-37 {
        fill: url(#Degradado_sin_nombre_1468-43);
      }

      .cls-38 {
        fill: url(#Degradado_sin_nombre_1468-13);
      }

      .cls-39 {
        fill: url(#Degradado_sin_nombre_1468-24);
      }

      .cls-40 {
        fill: url(#Degradado_sin_nombre_1468-14);
      }

      .cls-41 {
        fill: url(#Degradado_sin_nombre_1468-9);
      }

      .cls-42 {
        fill: url(#Degradado_sin_nombre_1468-8);
      }

      .cls-43 {
        fill: url(#Degradado_sin_nombre_1468-38);
      }

      .cls-44 {
        fill: url(#Degradado_sin_nombre_1468-19);
      }

      .cls-45 {
        fill: url(#Degradado_sin_nombre_1468-11);
      }

      .cls-46 {
        fill: url(#Degradado_sin_nombre_1468-45);
      }
    </style>
    <linearGradient id="Degradado_sin_nombre_1468" data-name="Degradado sin nombre 1468" x1="49.69" y1="175.15" x2="394.02" y2="175.15" gradientUnits="userSpaceOnUse">
      <stop offset="0" stop-color="#ff7200"/>
      <stop offset="1" stop-color="#ff7200" stop-opacity="0"/>
    </linearGradient>
    <linearGradient id="Degradado_sin_nombre_1468-2" data-name="Degradado sin nombre 1468" x1="46.69" y1="184.93" x2="387.82" y2="184.93" xlink:href="#Degradado_sin_nombre_1468"/>
    <linearGradient id="Degradado_sin_nombre_1468-3" data-name="Degradado sin nombre 1468" x1="43.67" y1="194.74" x2="381.6" y2="194.74" xlink:href="#Degradado_sin_nombre_1468"/>
    <linearGradient id="Degradado_sin_nombre_1468-4" data-name="Degradado sin nombre 1468" x1="40.65" y1="204.59" x2="375.39" y2="204.59" xlink:href="#Degradado_sin_nombre_1468"/>
    <linearGradient id="Degradado_sin_nombre_1468-5" data-name="Degradado sin nombre 1468" x1="37.66" y1="214.46" x2="369.2" y2="214.46" xlink:href="#Degradado_sin_nombre_1468"/>
    <linearGradient id="Degradado_sin_nombre_1468-6" data-name="Degradado sin nombre 1468" x1="34.71" y1="224.34" x2="363.05" y2="224.34" xlink:href="#Degradado_sin_nombre_1468"/>
    <linearGradient id="Degradado_sin_nombre_1468-7" data-name="Degradado sin nombre 1468" x1="31.83" y1="234.21" x2="356.98" y2="234.21" xlink:href="#Degradado_sin_nombre_1468"/>
    <linearGradient id="Degradado_sin_nombre_1468-8" data-name="Degradado sin nombre 1468" x1="29.04" y1="244.06" x2="350.99" y2="244.06" xlink:href="#Degradado_sin_nombre_1468"/>
    <linearGradient id="Degradado_sin_nombre_1468-9" data-name="Degradado sin nombre 1468" x1="26.36" y1="253.89" x2="345.11" y2="253.89" xlink:href="#Degradado_sin_nombre_1468"/>
    <linearGradient id="Degradado_sin_nombre_1468-10" data-name="Degradado sin nombre 1468" x1="23.81" y1="263.73" x2="339.36" y2="263.73" xlink:href="#Degradado_sin_nombre_1468"/>
    <linearGradient id="Degradado_sin_nombre_1468-11" data-name="Degradado sin nombre 1468" x1="21.41" y1="273.47" x2="333.77" y2="273.47" xlink:href="#Degradado_sin_nombre_1468"/>
    <linearGradient id="Degradado_sin_nombre_1468-12" data-name="Degradado sin nombre 1468" x1="19.19" y1="283.15" x2="328.35" y2="283.15" xlink:href="#Degradado_sin_nombre_1468"/>
    <linearGradient id="Degradado_sin_nombre_1468-13" data-name="Degradado sin nombre 1468" x1="17.16" y1="292.79" x2="323.13" y2="292.79" xlink:href="#Degradado_sin_nombre_1468"/>
    <linearGradient id="Degradado_sin_nombre_1468-14" data-name="Degradado sin nombre 1468" x1="15.35" y1="302.25" x2="318.12" y2="302.25" xlink:href="#Degradado_sin_nombre_1468"/>
    <linearGradient id="Degradado_sin_nombre_1468-15" data-name="Degradado sin nombre 1468" x1="13.78" y1="311.67" x2="313.36" y2="311.67" xlink:href="#Degradado_sin_nombre_1468"/>
    <linearGradient id="Degradado_sin_nombre_1468-16" data-name="Degradado sin nombre 1468" x1="12.47" y1="320.99" x2="308.85" y2="320.99" xlink:href="#Degradado_sin_nombre_1468"/>
    <linearGradient id="Degradado_sin_nombre_1468-17" data-name="Degradado sin nombre 1468" x1="11.45" y1="330.21" x2="304.63" y2="330.21" xlink:href="#Degradado_sin_nombre_1468"/>
    <linearGradient id="Degradado_sin_nombre_1468-18" data-name="Degradado sin nombre 1468" x1="10.72" y1="339.27" x2="300.71" y2="339.27" xlink:href="#Degradado_sin_nombre_1468"/>
    <linearGradient id="Degradado_sin_nombre_1468-19" data-name="Degradado sin nombre 1468" x1="10.32" y1="348.17" x2="297.11" y2="348.17" xlink:href="#Degradado_sin_nombre_1468"/>
    <linearGradient id="Degradado_sin_nombre_1468-20" data-name="Degradado sin nombre 1468" x1="10.26" y1="356.93" x2="293.86" y2="356.93" xlink:href="#Degradado_sin_nombre_1468"/>
    <linearGradient id="Degradado_sin_nombre_1468-21" data-name="Degradado sin nombre 1468" x1="10.58" y1="365.51" x2="290.98" y2="365.51" xlink:href="#Degradado_sin_nombre_1468"/>
    <linearGradient id="Degradado_sin_nombre_1468-22" data-name="Degradado sin nombre 1468" x1="11.28" y1="373.92" x2="288.49" y2="373.92" xlink:href="#Degradado_sin_nombre_1468"/>
    <linearGradient id="Degradado_sin_nombre_1468-23" data-name="Degradado sin nombre 1468" x1="12.39" y1="382.14" x2="286.41" y2="382.14" xlink:href="#Degradado_sin_nombre_1468"/>
    <linearGradient id="Degradado_sin_nombre_1468-24" data-name="Degradado sin nombre 1468" x1="13.93" y1="390.1" x2="284.76" y2="390.1" xlink:href="#Degradado_sin_nombre_1468"/>
    <linearGradient id="Degradado_sin_nombre_1468-25" data-name="Degradado sin nombre 1468" x1="15.93" y1="397.91" x2="283.56" y2="397.91" xlink:href="#Degradado_sin_nombre_1468"/>
    <linearGradient id="Degradado_sin_nombre_1468-26" data-name="Degradado sin nombre 1468" x1="18.4" y1="405.55" x2="282.84" y2="405.55" xlink:href="#Degradado_sin_nombre_1468"/>
    <linearGradient id="Degradado_sin_nombre_1468-27" data-name="Degradado sin nombre 1468" x1="21.37" y1="412.91" x2="282.61" y2="412.91" xlink:href="#Degradado_sin_nombre_1468"/>
    <linearGradient id="Degradado_sin_nombre_1468-28" data-name="Degradado sin nombre 1468" x1="24.86" y1="420.02" x2="282.91" y2="420.02" xlink:href="#Degradado_sin_nombre_1468"/>
    <linearGradient id="Degradado_sin_nombre_1468-29" data-name="Degradado sin nombre 1468" x1="28.88" y1="426.88" x2="283.74" y2="426.88" xlink:href="#Degradado_sin_nombre_1468"/>
    <linearGradient id="Degradado_sin_nombre_1468-30" data-name="Degradado sin nombre 1468" x1="33.47" y1="433.46" x2="285.13" y2="433.46" xlink:href="#Degradado_sin_nombre_1468"/>
    <linearGradient id="Degradado_sin_nombre_1468-31" data-name="Degradado sin nombre 1468" x1="38.64" y1="439.8" x2="287.11" y2="439.8" xlink:href="#Degradado_sin_nombre_1468"/>
    <linearGradient id="Degradado_sin_nombre_1468-32" data-name="Degradado sin nombre 1468" x1="44.41" y1="445.79" x2="289.69" y2="445.79" xlink:href="#Degradado_sin_nombre_1468"/>
    <linearGradient id="Degradado_sin_nombre_1468-33" data-name="Degradado sin nombre 1468" x1="50.81" y1="451.48" x2="292.89" y2="451.48" xlink:href="#Degradado_sin_nombre_1468"/>
    <linearGradient id="Degradado_sin_nombre_1468-34" data-name="Degradado sin nombre 1468" x1="57.85" y1="456.84" x2="296.74" y2="456.84" xlink:href="#Degradado_sin_nombre_1468"/>
    <linearGradient id="Degradado_sin_nombre_1468-35" data-name="Degradado sin nombre 1468" x1="65.56" y1="461.85" x2="301.26" y2="461.85" xlink:href="#Degradado_sin_nombre_1468"/>
    <linearGradient id="Degradado_sin_nombre_1468-36" data-name="Degradado sin nombre 1468" x1="73.96" y1="466.57" x2="306.47" y2="466.57" xlink:href="#Degradado_sin_nombre_1468"/>
    <linearGradient id="Degradado_sin_nombre_1468-37" data-name="Degradado sin nombre 1468" x1="83.08" y1="470.93" x2="312.39" y2="470.93" xlink:href="#Degradado_sin_nombre_1468"/>
    <linearGradient id="Degradado_sin_nombre_1468-38" data-name="Degradado sin nombre 1468" x1="95.51" y1="474.92" x2="322.56" y2="474.92" xlink:href="#Degradado_sin_nombre_1468"/>
    <linearGradient id="Degradado_sin_nombre_1468-39" data-name="Degradado sin nombre 1468" x1="111.28" y1="478.53" x2="335.15" y2="478.53" xlink:href="#Degradado_sin_nombre_1468"/>
    <linearGradient id="Degradado_sin_nombre_1468-40" data-name="Degradado sin nombre 1468" x1="126.92" y1="481.48" x2="347.6" y2="481.48" xlink:href="#Degradado_sin_nombre_1468"/>
    <linearGradient id="Degradado_sin_nombre_1468-41" data-name="Degradado sin nombre 1468" x1="141.65" y1="484.27" x2="359.15" y2="484.27" xlink:href="#Degradado_sin_nombre_1468"/>
    <linearGradient id="Degradado_sin_nombre_1468-42" data-name="Degradado sin nombre 1468" x1="155.68" y1="486.68" x2="369.99" y2="486.68" xlink:href="#Degradado_sin_nombre_1468"/>
    <linearGradient id="Degradado_sin_nombre_1468-43" data-name="Degradado sin nombre 1468" x1="169.51" y1="488.68" x2="380.63" y2="488.68" xlink:href="#Degradado_sin_nombre_1468"/>
    <linearGradient id="Degradado_sin_nombre_1468-44" data-name="Degradado sin nombre 1468" x1="184.2" y1="490.24" x2="392.13" y2="490.24" xlink:href="#Degradado_sin_nombre_1468"/>
    <linearGradient id="Degradado_sin_nombre_1468-45" data-name="Degradado sin nombre 1468" x1="199.77" y1="491.35" x2="404.51" y2="491.35" xlink:href="#Degradado_sin_nombre_1468"/>
    <linearGradient id="Degradado_sin_nombre_1468-46" data-name="Degradado sin nombre 1468" x1="216.25" y1="492.01" x2="417.8" y2="492.01" xlink:href="#Degradado_sin_nombre_1468"/>
  </defs>
  <path class="cls-24" d="M48.68,15.44c19.74,11.97,38.05,26.45,53.28,43.85,11.8,13.48,21.96,28.94,27.81,45.97,2.41,7.02,4.08,14.29,4.59,21.71.75,10.96-.21,21.98-2.23,32.76-3.79,20.19-11.16,39.35-17.16,58.92-2.41,7.86-4.61,15.87-5.41,24.08-.65,6.61-.15,13.52,2.95,19.51,6.6,12.73,21.67,14.37,34.52,14.13,9.19-.17,18.35-1.23,27.47-2.33,10.69-1.28,21.37-2.7,32.09-3.78,23.68-2.37,47.88-3.23,71.33,1.55,20.2,4.12,39.95,10.54,57.93,20.73,16.73,9.48,31.44,21.9,45.16,35.29,3.69,3.6,7.3,7.27,10.88,10.97,2.24,2.32,5.77-1.22,3.54-3.54-13.83-14.3-28.3-28.13-44.77-39.38-16.28-11.12-34.38-19.17-53.33-24.53-11.38-3.22-22.99-5.68-34.76-6.91s-24.02-1.33-36.02-.73c-21.63,1.08-42.98,4.62-64.51,6.69-8.2.79-16.54,1.41-24.77.65-5.65-.52-11.84-1.97-15.83-5.46-4.49-3.93-6.66-9.44-7.05-15.24-.51-7.41,1.09-14.84,2.97-21.96,5.06-19.16,12.61-37.55,17.31-56.82s7.14-39.42,2.54-58.71c-4.02-16.83-12.56-32.46-22.88-46.23-13.28-17.71-29.75-32.79-47.81-45.53-4.98-3.51-10.1-6.84-15.31-10-2.76-1.67-5.27,2.65-2.52,4.32h0Z"/>
  <path class="cls-29" d="M45.69,27.54c19.44,12,37.45,26.46,52.43,43.77,11.57,13.37,21.54,28.65,27.32,45.45,2.4,6.99,4.07,14.23,4.58,21.61.74,10.71-.16,21.48-2.08,32.02-3.63,19.9-10.78,38.8-16.45,58.15-2.25,7.69-4.3,15.56-4.88,23.58-.47,6.49.23,13.29,3.52,19.02,7.04,12.3,22.08,13.63,34.86,13.33,19.83-.47,39.53-4.14,59.25-6.04,23.24-2.24,46.9-2.9,69.88,1.86,19.88,4.12,39.31,10.49,56.99,20.58,16.28,9.29,30.6,21.43,43.92,34.54,3.62,3.56,7.17,7.19,10.68,10.86,2.23,2.33,5.76-1.21,3.54-3.54-13.47-14.07-27.61-27.64-43.7-38.69-15.97-10.96-33.72-18.91-52.33-24.22-11.12-3.18-22.49-5.62-34-6.9s-23.62-1.44-35.43-.91c-21.37.97-42.48,4.39-63.75,6.46-8.18.8-16.48,1.44-24.7.79-3.16-.25-6.3-.74-9.35-1.69-2.35-.73-4.98-1.95-6.72-3.32-10.8-8.48-8.16-24.13-5.22-36.05,4.67-18.91,12-37.06,16.51-56.02,4.48-18.84,6.88-38.97,2.27-58.02-4.02-16.61-12.42-32.06-22.57-45.69-13.04-17.52-29.19-32.49-46.91-45.19-4.92-3.53-9.97-6.87-15.12-10.05-2.75-1.69-5.26,2.63-2.52,4.32h0Z"/>
  <path class="cls-31" d="M42.67,39.69c19.07,11.99,36.73,26.38,51.45,43.49,11.38,13.24,21.21,28.36,26.94,44.94,2.39,6.93,4.04,14.1,4.59,21.42.79,10.54-.03,21.15-1.86,31.55-3.44,19.55-10.35,38.14-15.7,57.19-2.13,7.58-4.05,15.38-4.43,23.27-.3,6.37.61,13.04,4.08,18.52,7.49,11.85,22.44,12.91,35.15,12.55,19.54-.56,38.94-4.09,58.38-5.92,22.97-2.16,46.28-2.67,68.97,2.09,19.42,4.07,38.38,10.32,55.66,20.2,15.98,9.14,30.03,21.06,43.07,33.98,3.57,3.53,7.06,7.14,10.51,10.78,2.22,2.34,5.75-1.2,3.54-3.54-13.16-13.88-27.01-27.24-42.8-38.12-15.67-10.79-33.1-18.62-51.36-23.86-10.91-3.13-22.05-5.56-33.33-6.86s-23.22-1.51-34.84-1.02c-21.17.89-42.09,4.22-63.16,6.28-8.12.79-16.36,1.43-24.52.84-5.79-.42-11.67-1.53-16.33-4.88-4.29-3.08-7.02-8.54-7.78-13.99-.95-6.79.33-14.06,1.89-20.75,4.31-18.6,11.39-36.43,15.71-55.04s6.54-38.63,1.92-57.5c-4.03-16.41-12.35-31.67-22.36-45.17-12.79-17.24-28.58-32.05-45.9-44.67-4.86-3.54-9.85-6.9-14.93-10.1-2.73-1.72-5.24,2.61-2.52,4.32h0Z"/>
  <path class="cls-2" d="M39.66,51.86c18.7,11.98,36.01,26.29,50.44,43.22,11.19,13.13,20.87,28.07,26.56,44.44,2.39,6.87,4.04,13.98,4.62,21.24.82,10.41.07,20.89-1.68,31.17-3.26,19.16-9.91,37.41-14.92,56.13-3.39,12.69-7.47,29.17.7,40.95s22.76,12.22,35.42,11.8c19.34-.64,38.52-4.07,57.77-5.82,22.52-2.04,45.29-2.4,67.51,2.28,19.12,4.03,37.8,10.22,54.8,19.98,15.68,9,29.46,20.74,42.2,33.49,3.45,3.45,6.84,6.98,10.17,10.54,2.21,2.35,5.74-1.19,3.54-3.54-12.84-13.7-26.41-26.85-41.91-37.55s-32.48-18.32-50.4-23.5c-10.6-3.06-21.43-5.45-32.39-6.78s-22.83-1.61-34.25-1.19c-20.91.78-41.58,4-62.38,6.05-8.1.8-16.29,1.46-24.43.96-5.78-.36-11.77-1.35-16.53-4.48-4.51-2.98-7.39-8.13-8.37-13.72-1.12-6.38-.02-13.53,1.37-19.97,3.94-18.33,10.79-35.91,14.9-54.21,4.16-18.53,6.21-38.22,1.54-56.85-4.03-16.13-12.21-31.14-22.02-44.45-12.62-17.13-28.18-31.88-45.25-44.51-4.72-3.49-9.56-6.81-14.51-9.97-2.72-1.74-5.23,2.59-2.52,4.32h0Z"/>
  <path class="cls-17" d="M36.67,64.06c18.33,11.97,35.28,26.2,49.44,42.95,11,13.01,20.53,27.77,26.18,43.92,2.38,6.81,4.04,13.86,4.65,21.04.87,10.32.17,20.74-1.52,30.94-3.11,18.78-9.5,36.69-14.14,55.1-3.16,12.55-6.68,28.63,1.81,39.94,8.22,10.95,23.12,11.51,35.65,11.04,19.22-.72,38.28-4.07,57.42-5.73,22.16-1.92,44.47-2.07,66.31,2.6,18.66,3.99,36.86,10.09,53.43,19.65,15.39,8.88,28.89,20.44,41.36,33.02,3.33,3.36,6.59,6.79,9.81,10.26,2.19,2.36,5.72-1.18,3.54-3.54-12.49-13.47-25.73-26.37-40.86-36.88s-31.69-18-49.19-23.13c-10.42-3.05-21.09-5.44-31.87-6.81s-22.43-1.72-33.65-1.35c-20.65.67-41.06,3.78-61.59,5.82-8.07.8-16.22,1.47-24.33,1.06-5.82-.3-11.97-1.2-16.82-4.17-2.08-1.27-4.11-3.18-5.57-5.33-1.65-2.43-2.58-4.79-3.2-7.67-1.36-6.26-.46-13.24.79-19.62,3.55-18,10.14-35.27,14.05-53.21,3.99-18.33,5.89-37.76,1.24-56.15-4.04-15.99-12.15-30.87-21.85-44.1-12.42-16.94-27.7-31.57-44.46-44.15-4.58-3.44-9.29-6.72-14.08-9.85-2.7-1.76-5.21,2.56-2.52,4.32h0Z"/>
  <path class="cls-15" d="M33.72,76.27c17.89,11.92,34.42,26.01,48.28,42.49,10.84,12.89,20.25,27.48,25.89,43.42,2.38,6.72,4.07,13.7,4.72,20.77.93,10.19.33,20.48-1.26,30.57-2.91,18.48-9.08,36.14-13.37,54.29-2.99,12.65-5.88,28.22,3,39.24,8.37,10.39,23.47,10.66,35.67,10.16,18.97-.78,37.77-4.02,56.68-5.6,21.95-1.84,43.95-1.82,65.56,2.88,18.18,3.95,35.92,9.96,52.07,19.32,15.02,8.7,28.2,20.03,40.33,32.37,3.28,3.33,6.48,6.74,9.64,10.19,2.18,2.38,5.71-1.17,3.54-3.54-12.18-13.29-25.14-25.98-39.97-36.32-14.63-10.2-30.94-17.64-48.01-22.7-10.2-3.02-20.65-5.39-31.2-6.79s-22.09-1.81-33.16-1.5c-20.35.58-40.47,3.56-60.69,5.58-8.05.81-16.18,1.49-24.28,1.15-5.81-.25-12.08-1.07-16.99-3.85-4.6-2.61-7.88-7.19-9.22-12.47-1.55-6.13-.86-12.91.28-19.2,3.17-17.66,9.5-34.62,13.18-52.18,3.81-18.15,5.53-37.33.85-55.5-4.05-15.71-12.01-30.34-21.51-43.39-12.19-16.74-27.15-31.26-43.58-43.82-4.52-3.45-9.16-6.75-13.89-9.9-2.69-1.79-5.19,2.54-2.52,4.32h0Z"/>
  <path class="cls-19" d="M30.85,88.47c17.58,11.95,33.82,26.03,47.43,42.4,10.62,12.77,19.84,27.18,25.42,42.9,2.34,6.6,4.02,13.48,4.69,20.41.97,10.05.44,20.21-1.07,30.18-2.74,18.16-8.68,35.53-12.6,53.43-2.74,12.53-5.07,27.82,4.22,38.29,8.79,9.91,23.99,9.88,36.16,9.31,18.79-.88,37.41-4.02,56.15-5.5,21.49-1.7,42.93-1.46,64.06,3.2,17.73,3.91,35.01,9.83,50.75,18.99,14.66,8.54,27.53,19.63,39.34,31.74,3.21,3.3,6.35,6.67,9.44,10.08,2.16,2.39,5.69-1.15,3.54-3.54-11.84-13.07-24.47-25.5-38.94-35.65s-30.32-17.39-47.07-22.4c-9.82-2.93-19.9-5.29-30.05-6.69-10.83-1.5-21.75-1.96-32.67-1.71-20.16.45-40.11,3.33-60.15,5.34-7.96.8-15.98,1.49-23.98,1.24-5.81-.18-12.21-.88-17.21-3.44-4.7-2.41-8.23-6.64-9.79-11.77-1.81-5.94-1.37-12.5-.39-18.69,1.28-8.13,3.47-16.1,5.59-24.03,2.44-9.11,4.91-18.23,6.77-27.49,3.61-17.92,5.17-36.79.5-54.67-4.07-15.57-11.96-30.07-21.36-43.03-11.91-16.44-26.49-30.82-42.51-43.25-4.48-3.47-9.06-6.8-13.75-9.99-2.67-1.81-5.17,2.52-2.52,4.32h0Z"/>
  <path class="cls-42" d="M28.06,100.65c17.14,11.9,32.96,25.84,46.27,41.94,10.45,12.65,19.56,26.89,25.14,42.39,2.37,6.6,4.09,13.49,4.8,20.4,1.01,9.91.55,19.95-.86,29.79-2.56,17.77-8.23,34.8-11.77,52.36-2.52,12.45-4.34,27.59,5.43,37.53,9.14,9.3,24.12,9.11,36.19,8.5,18.56-.93,36.96-3.97,55.48-5.36,10.42-.78,20.88-1.17,31.32-.75s21.12,1.85,31.52,4.17c17.36,3.87,34.28,9.71,49.67,18.72,14.37,8.4,26.96,19.32,38.49,31.26,3.1,3.22,6.13,6.51,9.12,9.84,2.15,2.4,5.68-1.14,3.54-3.54-11.53-12.89-23.89-25.12-38.07-35.1s-29.58-17.04-45.92-21.97c-9.68-2.92-19.62-5.26-29.63-6.69-10.62-1.52-21.35-2.02-32.08-1.82-19.79.37-39.38,3.11-59.05,5.09-7.97.8-16.01,1.5-24.03,1.31-5.79-.14-12.26-.77-17.28-3.15-4.71-2.23-8.41-6.17-10.15-11.09-2.06-5.84-1.8-12.21-.98-18.37,1.06-7.92,3.11-15.71,5.09-23.44,2.28-8.9,4.59-17.8,6.35-26.83,3.46-17.81,4.87-36.53.15-54.25-4.09-15.36-11.9-29.67-21.15-42.51-11.71-16.24-26-30.52-41.71-42.9-4.34-3.42-8.79-6.71-13.33-9.86-2.65-1.84-5.15,2.49-2.52,4.32h0Z"/>
  <path class="cls-41" d="M25.39,112.81c16.76,11.89,32.22,25.75,45.26,41.67,10.26,12.53,19.22,26.59,24.76,41.88,2.34,6.45,4.06,13.13,4.81,19.96,1.08,9.75.69,19.62-.59,29.33-2.3,17.49-7.79,34.29-10.97,51.61-2.26,12.32-3.55,27.11,6.44,36.55,9.41,8.88,24.27,8.56,36.32,7.93,18.29-.97,36.43-3.89,54.7-5.21,10.36-.75,20.75-1.08,31.13-.61s20.54,1.93,30.66,4.21c17,3.83,33.55,9.59,48.61,18.44,14.07,8.27,26.4,19.01,37.64,30.78,3,3.14,5.92,6.35,8.8,9.6,2.13,2.42,5.66-1.13,3.54-3.54-11.18-12.66-23.21-24.63-37.03-34.42s-28.95-16.79-44.95-21.66c-19.69-6-39.95-8.89-60.53-8.61s-38.92,2.92-58.35,4.86c-7.87.79-15.8,1.48-23.72,1.35-5.82-.1-12.31-.66-17.42-2.87-4.8-2.07-8.62-5.8-10.55-10.55-2.32-5.71-2.18-11.99-1.51-18.09.85-7.66,2.73-15.19,4.54-22.67,2.15-8.85,4.36-17.69,6-26.65,3.23-17.56,4.43-35.94-.31-53.35-4.1-15.08-11.76-29.14-20.82-41.79-11.54-16.12-25.59-30.35-41.04-42.73-4.21-3.37-8.52-6.62-12.92-9.74-2.63-1.87-5.13,2.47-2.52,4.32h0Z"/>
  <path class="cls-3" d="M22.84,124.93c16.38,11.88,31.49,25.66,44.25,41.39,10.07,12.41,18.88,26.3,24.39,41.36,2.34,6.39,4.07,13.01,4.86,19.77,1.12,9.61.8,19.34-.38,28.93-2.1,17.16-7.37,33.68-10.14,50.71-1.99,12.25-2.65,26.73,7.74,35.57,9.76,8.3,24.44,7.83,36.46,7.14,18.16-1.03,36.17-3.87,54.32-5.08,10.09-.67,20.22-.94,30.32-.41s20.07,2.04,29.95,4.3c16.56,3.79,32.68,9.45,47.35,18.11,13.73,8.11,25.74,18.62,36.67,30.17,2.94,3.1,5.79,6.28,8.6,9.5,2.12,2.43,5.64-1.12,3.54-3.54-10.84-12.44-22.56-24.17-36.02-33.77-13.32-9.49-28.21-16.47-43.82-21.29-19.21-5.93-39.02-8.9-59.13-8.74s-38.38,2.67-57.53,4.59c-7.9.79-15.84,1.51-23.79,1.44-6.04-.05-12.04-.53-17.74-2.66-1.96-.73-4.44-2.22-5.99-3.59-2.14-1.89-3.7-3.96-4.93-6.56-2.41-5.11-2.5-11.34-2.02-17.1.63-7.56,2.36-15.01,4.05-22.39,1.97-8.64,4.04-17.26,5.57-25.99,3.06-17.46,4.11-35.66-.68-52.92-4.13-14.87-11.7-28.75-20.62-41.27-11.29-15.84-24.98-29.9-40.02-42.2-4.14-3.39-8.39-6.65-12.72-9.79-1.09-.79-2.79-.19-3.42.9-.74,1.26-.2,2.63.9,3.42h0Z"/>
  <path class="cls-45" d="M20.45,136.99c16.05,11.91,30.84,25.66,43.36,41.27,9.85,12.28,18.49,25.98,23.94,40.8,2.34,6.37,4.09,12.98,4.9,19.73,1.15,9.55.86,19.22-.26,28.77-1.96,16.72-6.95,32.87-9.26,49.51-1.7,12.25-1.57,26.09,9.08,34.4,4.47,3.49,9.99,5.16,15.54,5.95,6.96.98,14,.86,21,.44,17.85-1.07,35.55-3.79,53.4-4.91,9.9-.62,19.85-.84,29.76-.27s19.79,2.13,29.52,4.39c16.12,3.74,31.8,9.31,46.07,17.78,13.43,7.98,25.19,18.31,35.83,29.69,2.83,3.03,5.58,6.12,8.29,9.26,2.1,2.44,5.63-1.11,3.54-3.54-10.55-12.26-21.98-23.79-35.17-33.23-13.04-9.33-27.64-16.19-42.93-20.94-18.71-5.81-38.03-8.8-57.62-8.75s-37.81,2.44-56.66,4.33c-7.79.78-15.61,1.49-23.44,1.49-6.05,0-12.12-.35-17.87-2.32-4.68-1.61-8.91-4.85-11.39-9.44-2.68-4.94-3.05-10.88-2.74-16.57.4-7.39,1.95-14.68,3.49-21.9,1.81-8.49,3.74-16.96,5.17-25.53,2.87-17.25,3.78-35.18-.99-52.18-4.13-14.71-11.59-28.43-20.37-40.85-11.05-15.63-24.41-29.57-39.09-41.82-4.09-3.42-8.29-6.7-12.56-9.87-1.08-.81-2.79-.18-3.42.9-.74,1.27-.19,2.61.9,3.42h0Z"/>
  <path class="cls-1" d="M18.23,149c15.6,11.86,29.98,25.47,42.2,40.81,9.68,12.16,18.2,25.68,23.66,40.3,2.35,6.29,4.11,12.8,4.99,19.46,1.23,9.32,1.03,18.8.05,28.13-1.74,16.52-6.44,32.53-8.44,49-.77,6.35-1.06,12.98.59,19.22,1.54,5.83,4.96,10.79,9.86,14.3,4.55,3.27,10.19,4.64,15.65,5.36,6.83.89,13.76.7,20.62.28,17.65-1.09,35.17-3.72,52.84-4.75,9.75-.57,19.54-.73,29.29-.11s19.21,2.2,28.65,4.41c15.77,3.7,31.11,9.18,45.05,17.5,13.08,7.81,24.53,17.91,34.85,29.06,2.78,3,5.48,6.07,8.12,9.19,2.08,2.46,5.61-1.09,3.54-3.54-10.25-12.08-21.42-23.41-34.31-32.68s-26.93-15.85-41.83-20.52c-18.3-5.74-37.26-8.77-56.45-8.82-18.65-.05-37.17,2.23-55.7,4.07-7.75.77-15.53,1.48-23.32,1.52-6.12.04-12.26-.26-18.1-2.13-4.59-1.48-9-4.52-11.6-8.85-2.88-4.78-3.48-10.51-3.32-16.13.2-7.16,1.56-14.25,2.94-21.26,1.66-8.43,3.48-16.84,4.79-25.34,2.62-16.99,3.32-34.58-1.46-51.27-4.16-14.5-11.54-28.03-20.18-40.32-10.85-15.44-23.93-29.25-38.29-41.47-3.95-3.37-8.02-6.6-12.15-9.75-1.08-.82-2.8-.17-3.42.9-.75,1.28-.18,2.6.9,3.42h0Z"/>
  <path class="cls-38" d="M15.7,160.54c15.32,11.93,29.47,25.46,41.52,40.7,9.55,12.09,17.98,25.48,23.44,39.93,2.35,6.22,4.1,12.64,5.05,19.23,1.31,9.12,1.18,18.43.31,27.59-1.53,16.2-5.97,31.96-7.56,48.14-.6,6.16-.71,12.64,1.12,18.62s5.3,10.52,10.26,13.81c4.67,3.11,10.31,4.38,15.81,5.04,6.82.82,13.74.6,20.58.16,17.37-1.1,34.62-3.62,52-4.57,9.6-.52,19.23-.64,28.82.02s18.8,2.25,28.05,4.44c15.42,3.65,30.42,9.04,44.04,17.22,12.8,7.68,23.98,17.6,34.02,28.59,2.68,2.93,5.27,5.92,7.82,8.96,2.07,2.47,5.59-1.08,3.54-3.54-9.91-11.85-20.76-22.94-33.3-32.03-12.4-8.98-26.32-15.6-40.9-20.21-17.73-5.61-36.15-8.68-54.75-8.87s-36.72,1.97-55.02,3.78c-7.72.76-15.47,1.48-23.23,1.57-6.1.08-12.23-.14-18.09-1.82-4.66-1.33-9.2-4-12.04-8.14-3.14-4.58-4.05-10.05-4.08-15.58-.04-6.98,1.13-13.91,2.36-20.76,1.46-8.13,3.11-16.23,4.3-24.4,2.46-16.87,3.09-34.28-1.67-50.83-4.1-14.25-11.31-27.57-19.73-39.7-10.61-15.3-23.39-29.06-37.41-41.28-3.8-3.32-7.71-6.52-11.69-9.62-1.06-.83-2.5-1.04-3.54,0-.86.86-1.07,2.7,0,3.54h0Z"/>
  <path class="cls-40" d="M13.9,172.39c14.93,11.93,28.72,25.36,40.5,40.43,9.36,11.96,17.64,25.18,23.07,39.41,2.38,6.24,4.16,12.68,5.15,19.3,1.34,8.97,1.26,18.14.49,27.16-1.36,15.77-5.52,31.19-6.63,46.98-.43,6.02-.31,12.38,1.77,18.12,2,5.5,5.73,10.15,10.77,13.17s10.47,4.06,16.01,4.64c6.81.72,13.71.46,20.53.01,17.21-1.13,34.31-3.56,51.55-4.4,9.41-.46,18.86-.5,28.26.22s18.3,2.35,27.29,4.52c14.93,3.6,29.44,8.89,42.62,16.84,12.46,7.52,23.34,17.23,33.08,27.99,2.62,2.89,5.15,5.85,7.63,8.86.86,1.04,2.65.89,3.54,0,1.03-1.03.86-2.49,0-3.54-9.58-11.64-20.12-22.49-32.34-31.4-12.07-8.8-25.62-15.3-39.82-19.85-17.34-5.56-35.4-8.66-53.61-8.95s-35.97,1.74-53.88,3.49c-7.67.75-15.36,1.46-23.07,1.61-6.11.12-12.28-.03-18.18-1.54-4.88-1.25-9.35-3.53-12.62-7.71s-4.43-9.5-4.65-14.75c-.29-6.78.68-13.57,1.76-20.25,1.3-8.09,2.82-16.15,3.92-24.27,2.24-16.65,2.64-33.77-2.15-50.04-4.12-13.97-11.19-27.03-19.41-38.98-10.39-15.1-22.86-28.74-36.53-40.93-3.73-3.33-7.57-6.55-11.48-9.68-1.05-.84-2.51-1.03-3.54,0-.87.87-1.06,2.69,0,3.54h0Z"/>
  <path class="cls-16" d="M12.33,184.14c14.5,11.89,27.94,25.2,39.41,40.05,9.17,11.87,17.34,24.89,22.76,38.93,2.4,6.21,4.21,12.61,5.24,19.18,1.38,8.78,1.39,17.76.74,26.6-.61,8.25-1.87,16.43-3.14,24.6-1.11,7.16-2.28,14.37-2.58,21.62-.24,6.01.18,12.22,2.54,17.82,2.22,5.25,6.24,9.64,11.28,12.33s10.58,3.69,16.12,4.19c6.83.61,13.72.32,20.55-.14,16.95-1.16,33.79-3.47,50.77-4.2,9.17-.39,18.37-.38,27.53.39s17.88,2.42,26.64,4.56c14.57,3.56,28.73,8.78,41.58,16.6,12.11,7.37,22.68,16.88,32.1,27.43,2.51,2.82,4.95,5.7,7.33,8.63.85,1.05,2.65.88,3.54,0,1.04-1.04.85-2.48,0-3.54-9.25-11.41-19.48-22.03-31.35-30.75-11.72-8.61-24.9-14.98-38.71-19.48-16.83-5.47-34.44-8.62-52.13-9.04-17.79-.43-35.49,1.48-53.17,3.18-7.63.74-15.28,1.45-22.95,1.64-6.12.16-12.35.06-18.28-1.3-4.92-1.13-9.3-3.1-12.83-7-3.49-3.85-5.04-9.08-5.46-14.26-.53-6.54.24-13.16,1.15-19.64,1.13-8,2.51-15.97,3.5-23.99,2.02-16.41,2.21-33.27-2.59-49.25-4.15-13.81-11.15-26.73-19.27-38.58-10.19-14.89-22.36-28.4-35.68-40.54-3.61-3.29-7.32-6.49-11.1-9.59-1.04-.86-2.51-1.02-3.54,0-.88.88-1.05,2.68,0,3.54h0Z"/>
  <path class="cls-32" d="M11.03,195.78c14.08,11.86,27.17,25.05,38.34,39.71,8.99,11.79,17.04,24.62,22.45,38.47,2.37,6.06,4.19,12.32,5.27,18.74,1.45,8.64,1.58,17.47,1.04,26.2-.5,8.1-1.61,16.13-2.71,24.16-.96,7.02-1.98,14.08-2.06,21.17-.07,5.93.61,11.96,3.15,17.38,2.36,5.03,6.6,9.2,11.58,11.65s10.66,3.48,16.24,3.92c6.74.54,13.53.25,20.26-.22,16.72-1.14,33.35-3.37,50.1-4.02,9.1-.35,18.22-.29,27.29.53s17.3,2.44,25.77,4.54c14.24,3.52,28.07,8.65,40.61,16.32,11.77,7.2,22.04,16.49,31.16,26.81,2.46,2.79,4.84,5.65,7.16,8.56.84,1.06,2.66.88,3.54,0,1.04-1.04.84-2.48,0-3.54-8.96-11.24-18.93-21.66-30.52-30.22-11.46-8.46-24.35-14.71-37.87-19.13-16.38-5.35-33.53-8.48-50.76-8.99-17.52-.52-34.97,1.29-52.38,2.93-7.51.71-15.02,1.41-22.56,1.63-6.11.18-12.37.13-18.31-1.12-4.96-1.04-9.36-2.79-13.05-6.48s-5.47-8.55-6.1-13.63c-.8-6.5-.15-13.15.62-19.62.91-7.7,2.14-15.37,2.98-23.08,1.77-16.22,1.76-32.82-3.09-48.54-4.19-13.59-11.11-26.32-19.08-38.05-9.95-14.62-21.76-27.95-34.67-40-3.54-3.31-7.18-6.52-10.88-9.64-1.03-.87-2.52-1.01-3.54,0-.89.89-1.04,2.66,0,3.54h0Z"/>
  <path class="cls-20" d="M10,207.3c13.67,11.85,26.39,24.94,37.29,39.4,8.79,11.66,16.7,24.3,22.1,37.92,2.39,6.03,4.25,12.24,5.37,18.63,1.5,8.53,1.72,17.24,1.29,25.87-.4,7.97-1.38,15.89-2.31,23.8-.8,6.8-1.63,13.66-1.46,20.51.14,5.81,1.05,11.75,3.88,16.9,2.64,4.81,6.99,8.67,11.99,10.89s10.81,3.21,16.44,3.59c6.74.46,13.52.14,20.25-.33,16.44-1.14,32.81-3.24,49.29-3.79,8.85-.29,17.74-.18,26.56.67s16.87,2.48,25.12,4.56c13.83,3.48,27.25,8.51,39.43,16,11.5,7.06,21.51,16.17,30.36,26.32,2.37,2.72,4.65,5.5,6.87,8.34.83,1.06,2.66.87,3.54,0,1.05-1.05.84-2.47,0-3.54-8.64-11.01-18.29-21.19-29.55-29.55-11.12-8.27-23.65-14.39-36.78-18.75-15.97-5.3-32.72-8.46-49.54-9.06s-34.3,1.06-51.38,2.63c-7.46.69-14.93,1.37-22.42,1.62-6.06.2-12.32.19-18.23-.89-4.98-.92-9.48-2.42-13.31-5.82s-6.07-8.2-6.98-13.47c-1.05-6.05-.56-12.51.03-18.65.72-7.58,1.8-15.11,2.51-22.69,1.52-16.03,1.33-32.36-3.55-47.84-4.21-13.36-11.01-25.88-18.82-37.46-9.77-14.48-21.33-27.74-33.95-39.8-3.42-3.27-6.93-6.45-10.51-9.55-2.42-2.1-5.97,1.42-3.54,3.54h0Z"/>
  <path class="cls-33" d="M9.28,218.69c13.32,11.89,25.71,24.94,36.38,39.28,8.61,11.58,16.38,24.07,21.74,37.51,2.4,6.02,4.27,12.22,5.42,18.6,1.49,8.27,1.78,16.73,1.47,25.12-.29,7.71-1.12,15.39-1.86,23.06-.64,6.57-1.28,13.21-.91,19.82.31,5.65,1.39,11.41,4.35,16.32,2.81,4.67,7.17,8.28,12.16,10.42s10.83,3.07,16.44,3.42c6.69.42,13.41.11,20.08-.35,16.2-1.11,32.32-3.12,48.56-3.6,8.69-.26,17.41-.11,26.06.75s16.44,2.47,24.49,4.5c13.53,3.42,26.68,8.35,38.59,15.68,11.19,6.89,20.92,15.76,29.48,25.69,2.21,2.57,4.36,5.2,6.42,7.88.82,1.07,2.15,1.64,3.42.9,1.05-.61,1.73-2.34.9-3.42-8.38-10.88-17.72-20.94-28.71-29.23s-23.04-14.21-35.86-18.54c-15.5-5.23-31.82-8.41-48.17-9.14s-33.94.82-50.83,2.34c-7.4.67-14.81,1.34-22.24,1.61-6.05.22-12.32.25-18.23-.74-5.01-.84-9.59-2.22-13.55-5.4s-6.43-7.73-7.54-12.83c-1.26-5.79-1.01-11.98-.6-17.92.51-7.32,1.41-14.61,2-21.92,1.27-15.81.95-31.88-3.9-47.12-4.19-13.18-10.88-25.54-18.53-37.01-9.57-14.34-20.86-27.53-33.15-39.59-3.36-3.3-6.81-6.51-10.32-9.65-2.39-2.14-5.94,1.39-3.54,3.54h0Z"/>
  <path class="cls-44" d="M8.89,229.94c12.97,11.93,25.03,24.94,35.47,39.16,8.43,11.49,16.07,23.84,21.39,37.1,2.41,6,4.3,12.19,5.48,18.55,1.49,8.02,1.85,16.21,1.66,24.36-.18,7.46-.85,14.89-1.41,22.33-.48,6.35-.93,12.77-.36,19.14.49,5.5,1.73,11.07,4.81,15.74s7.61,8.07,12.79,10.16,10.69,2.76,16.14,3.08c6.64.38,13.31.07,19.95-.38,15.96-1.08,31.85-3.01,47.85-3.41,8.53-.21,17.08-.03,25.56.87s16.03,2.48,23.87,4.48c13.15,3.35,25.92,8.16,37.5,15.31,10.92,6.74,20.41,15.43,28.71,25.18,2.16,2.54,4.25,5.15,6.26,7.81.81,1.08,2.16,1.64,3.42.9,1.06-.62,1.72-2.34.9-3.42-8.14-10.76-17.27-20.67-28.06-28.82s-22.43-13.85-34.9-18.08c-15.22-5.16-31.25-8.31-47.3-9.08-16.61-.79-33.2.68-49.74,2.13-7.32.64-14.64,1.29-21.99,1.57-6.01.22-12.27.27-18.15-.65-5.11-.8-9.74-2.15-13.85-5.23s-6.5-7.26-7.75-12.05c-1.45-5.57-1.41-11.47-1.17-17.24.31-7.15,1.05-14.27,1.5-21.4.98-15.45.48-31.09-4.3-45.93-4.18-12.99-10.76-25.19-18.26-36.55-9.42-14.27-20.5-27.45-32.55-39.57-3.24-3.26-6.56-6.45-9.95-9.56-2.36-2.18-5.91,1.35-3.54,3.54h0Z"/>
  <path class="cls-27" d="M8.84,241.03c12.61,11.98,24.35,24.94,34.55,39.04,8.25,11.4,15.75,23.61,21.04,36.69,2.42,5.98,4.33,12.14,5.54,18.48,1.49,7.77,1.93,15.7,1.86,23.6-.06,7.27-.59,14.53-.96,21.79-.31,6.12-.55,12.32.22,18.42.68,5.34,2.11,10.71,5.33,15.12s7.72,7.63,12.85,9.59,10.69,2.63,16.13,2.92c6.58.35,13.19.05,19.77-.39,15.71-1.05,31.35-2.88,47.1-3.22,8.36-.18,16.74.03,25.06.94,7.85.86,15.64,2.47,23.28,4.43,12.85,3.29,25.33,7.99,36.64,14.98,10.71,6.62,20.01,15.19,28.08,24.82,2.07,2.47,4.05,5,5.97,7.59.8,1.08,2.16,1.63,3.42.9,1.07-.62,1.71-2.33.9-3.42-7.86-10.59-16.74-20.31-27.25-28.3s-21.9-13.58-34.09-17.74c-14.85-5.06-30.53-8.18-46.19-9s-32.63.52-48.88,1.91c-7.23.62-14.47,1.25-21.73,1.52-6.03.23-12.31.29-18.22-.59-5.04-.75-9.6-2.04-13.72-4.87s-6.79-6.87-8.2-11.47c-1.66-5.42-1.82-11.09-1.73-16.75.11-6.84.67-13.66.98-20.48.69-15.14.03-30.42-4.71-44.94-4.2-12.87-10.73-24.97-18.12-36.27-9.2-14.06-19.96-27.1-31.63-39.18-3.18-3.29-6.44-6.51-9.76-9.66-2.33-2.22-5.87,1.31-3.54,3.54h0Z"/>
  <path class="cls-28" d="M9.16,251.95c12.24,12.02,23.66,24.95,33.63,38.92,8.07,11.31,15.44,23.38,20.71,36.27,2.43,5.96,4.37,12.09,5.62,18.41,1.5,7.55,2.02,15.25,2.07,22.94.09,12.95-1.75,26.21.32,39.08.85,5.26,2.69,10.3,6.01,14.51s7.88,7.07,12.83,8.84,10.72,2.47,16.16,2.73c6.53.31,13.09,0,19.61-.42,15.46-1.02,30.87-2.76,46.38-3.02,8.2-.14,16.41.11,24.56,1.05,7.64.88,15.22,2.48,22.67,4.4,12.53,3.23,24.7,7.85,35.72,14.71,10.39,6.46,19.39,14.81,27.17,24.23,2.02,2.44,3.95,4.95,5.81,7.51.79,1.09,2.17,1.63,3.42.9,1.08-.63,1.7-2.32.9-3.42-7.54-10.36-16.12-19.87-26.32-27.68-10.06-7.71-21.46-13.4-33.43-17.5-14.41-4.93-29.64-8.01-44.84-8.9-16.1-.94-32.21.35-48.25,1.67-12.97,1.07-26.52,2.67-39.43.97-4.96-.65-9.66-1.89-13.76-4.47s-7.16-6.48-8.75-10.9c-1.87-5.2-2.25-10.64-2.33-16.13-.1-6.61.29-13.23.46-19.84.38-14.86-.45-29.81-5.19-44.01-4.23-12.69-10.67-24.63-17.94-35.83-9.03-13.92-19.54-26.89-30.9-38.97-3.06-3.25-6.19-6.44-9.38-9.57-2.3-2.26-5.84,1.28-3.54,3.54h0Z"/>
  <path class="cls-10" d="M9.87,262.7c11.87,12.06,22.96,24.95,32.7,38.8,7.89,11.22,15.13,23.14,20.38,35.85,2.44,5.92,4.4,12.01,5.7,18.28,1.51,7.3,2.12,14.73,2.3,22.18.17,6.73-.03,13.46-.02,20.19.01,5.84.19,11.75,1.35,17.49,1.03,5.1,3.06,9.96,6.45,13.95s8.04,6.75,12.96,8.41c5.17,1.74,10.71,2.35,16.14,2.59,6.47.29,12.96,0,19.42-.42,15.2-.97,30.36-2.63,45.61-2.83,8.03-.1,16.07.17,24.05,1.12,7.44.89,14.83,2.45,22.08,4.33,12.23,3.17,24.12,7.68,34.87,14.39,10.18,6.35,18.98,14.58,26.54,23.87,1.92,2.37,3.76,4.81,5.53,7.3.78,1.1,2.18,1.62,3.42.9,1.09-.63,1.68-2.32.9-3.42-7.26-10.19-15.59-19.52-25.53-27.17s-20.94-13.13-32.63-17.16c-14.05-4.83-28.92-7.87-43.74-8.81-15.8-1-31.62.2-47.37,1.45-13,1.03-26.38,2.57-39.4.94-4.67-.58-9.47-1.79-13.42-4.11-4.21-2.48-7.45-6.16-9.23-10.47-2.02-4.88-2.59-10.12-2.84-15.32-.3-6.36-.1-12.74-.07-19.11.06-14.59-.95-29.22-5.69-43.12-4.24-12.44-10.56-24.16-17.64-35.2-8.84-13.78-19.07-26.67-30.1-38.76-3-3.28-6.06-6.51-9.18-9.67-2.26-2.3-5.8,1.24-3.54,3.54h0Z"/>
  <path class="cls-23" d="M10.99,273.26c11.5,12.11,22.25,24.95,31.77,38.69,7.72,11.14,14.8,22.91,20.06,35.42,5.31,12.64,7.72,25.89,8.33,39.55.29,6.48.25,12.97.46,19.46.18,5.63.53,11.34,1.89,16.82,1.22,4.94,3.41,9.63,6.88,13.39s8.17,6.43,13.07,7.99c5.24,1.66,10.82,2.24,16.29,2.46,6.42.26,12.85-.04,19.25-.44,14.95-.94,29.87-2.5,44.86-2.62,7.86-.06,15.73.25,23.54,1.22,7.23.9,14.42,2.45,21.47,4.29,11.92,3.11,23.51,7.54,33.98,14.11,9.86,6.19,18.38,14.21,25.64,23.28,1.87,2.34,3.65,4.76,5.37,7.22.77,1.11,2.19,1.62,3.42.9,1.1-.64,1.67-2.31.9-3.42-6.91-9.92-14.93-19.06-24.51-26.49s-20.55-13.01-32.07-16.99c-13.69-4.73-28.2-7.72-42.65-8.71-15.5-1.06-31.03.05-46.48,1.23-12.89.99-26.1,2.43-39.01.94-4.65-.53-9.6-1.69-13.56-3.89-4.33-2.4-7.53-5.73-9.64-10.16s-2.87-9.51-3.27-14.32c-.51-6.11-.48-12.26-.6-18.38-.27-14.25-1.45-28.5-6.16-42.04-4.26-12.25-10.48-23.8-17.41-34.72-8.7-13.71-18.72-26.59-29.48-38.74-2.88-3.25-5.81-6.44-8.8-9.59-2.22-2.34-5.75,1.2-3.54,3.54h0Z"/>
  <path class="cls-39" d="M12.54,283.61c11.22,12.27,21.74,25.2,31.09,38.95,7.5,11.03,14.42,22.63,19.63,34.94,5.23,12.36,7.71,25.33,8.57,38.69.4,6.16.52,12.34.93,18.5.36,5.46.9,11.02,2.49,16.28,1.43,4.72,3.79,9.17,7.32,12.65s8.4,6.11,13.36,7.56c11.28,3.29,23.65,2.5,35.23,1.79,14.7-.9,29.36-2.37,44.1-2.41,7.61-.02,15.24.31,22.79,1.29,7.1.92,14.17,2.44,21.09,4.27,11.62,3.06,22.91,7.39,33.1,13.83,9.6,6.06,17.87,13.93,24.87,22.84,1.78,2.27,3.46,4.62,5.09,7.01,1.8,2.64,6.14.15,4.32-2.52-6.7-9.84-14.56-18.88-24-26.19s-19.99-12.64-31.2-16.51c-13.36-4.62-27.52-7.54-41.61-8.55-15.12-1.08-30.27-.07-45.35,1.03-12.88.94-26.04,2.34-38.93.9-9.44-1.05-18.69-4.59-23.32-13.3-2.12-3.99-3.2-8.93-3.76-13.53-.72-5.92-.87-11.9-1.13-17.86-.62-13.83-1.98-27.62-6.65-40.75-4.29-12.05-10.41-23.43-17.2-34.24-8.57-13.64-18.37-26.5-28.85-38.72-2.76-3.21-5.57-6.37-8.42-9.5-2.18-2.38-5.7,1.16-3.54,3.54h0Z"/>
  <path class="cls-6" d="M14.54,293.75c10.68,12.15,20.74,24.87,29.78,38.29,7.41,11.01,14.25,22.53,19.55,34.71,5.19,11.92,7.86,24.46,9.03,37.37.55,6.03.84,12.08,1.43,18.11.52,5.25,1.21,10.59,2.94,15.6,1.6,4.65,4.08,9,7.73,12.35s8.42,5.82,13.32,7.21c11.24,3.17,23.48,2.44,35,1.77,14.47-.85,28.92-2.24,43.43-2.23,7.47,0,14.97.35,22.38,1.35,6.91.94,13.78,2.41,20.52,4.19,11.33,2.99,22.34,7.22,32.27,13.51,9.25,5.86,17.28,13.47,23.96,22.13,1.79,2.32,3.48,4.72,5.1,7.16,1.77,2.67,6.11.17,4.32-2.52-6.42-9.66-14.04-18.54-23.22-25.68s-19.49-12.38-30.42-16.17c-13.02-4.52-26.84-7.39-40.58-8.44-14.86-1.13-29.77-.2-44.6.83-12.67.89-25.57,2.19-38.25.89-9.37-.97-18.81-4.19-23.77-12.53-5.22-8.76-5.26-20.31-5.99-30.38-.98-13.54-2.6-26.99-7.35-39.8-4.39-11.83-10.46-23.02-17.14-33.71-8.31-13.3-17.72-25.91-27.73-37.97-2.68-3.23-5.41-6.41-8.18-9.56-2.13-2.42-5.65,1.13-3.54,3.54h0Z"/>
  <path class="cls-30" d="M17.02,303.67c10.34,12.26,20.12,25.01,28.97,38.39,7.19,10.87,13.86,22.17,19.14,34.1s7.94,23.78,9.4,36.34c.69,5.96,1.18,11.94,1.99,17.88.67,4.9,1.56,9.84,3.4,14.45s4.46,8.73,8.25,11.91,8.44,5.43,13.3,6.73c11.27,3,23.43,2.3,34.94,1.64,14.29-.81,28.56-2.12,42.88-2.02s28.01,1.96,41.67,5.6c10.98,2.93,21.66,7.06,31.27,13.19,8.94,5.7,16.73,13.12,23.11,21.58,1.73,2.29,3.36,4.66,4.92,7.06,1.74,2.69,6.07.19,4.32-2.52-6.12-9.45-13.46-18.14-22.34-25.11s-18.88-12.1-29.5-15.83c-12.75-4.48-26.3-7.32-39.76-8.41-14.55-1.19-29.16-.34-43.69.62-12.53.83-25.27,2.07-37.82.87-4.57-.44-9.75-1.43-13.73-3.25-4.31-1.97-8.06-4.91-10.54-8.72-5.39-8.26-5.95-19.21-6.94-28.94-1.34-13.09-3.14-26.08-7.85-38.46-4.46-11.71-10.49-22.79-17.07-33.42-8.12-13.1-17.22-25.58-26.85-37.6-2.6-3.25-5.24-6.45-7.92-9.63-.87-1.03-2.64-.9-3.54,0-1.02,1.02-.87,2.5,0,3.54h0Z"/>
  <path class="cls-25" d="M19.99,313.35c9.85,12.2,19.22,24.81,27.8,37.94,6.99,10.71,13.52,21.78,18.82,33.43,5.15,11.32,8.17,23.16,9.99,35.43,1.56,10.54,2.16,21.63,6.5,31.5,9.5,21.57,36.51,20.26,56.23,19.21,14.05-.75,28.09-1.99,42.17-1.85,13.87.14,27.5,1.99,40.9,5.57,10.7,2.86,21.11,6.89,30.47,12.88,8.69,5.56,16.25,12.81,22.38,21.1,1.68,2.27,3.26,4.61,4.77,7,1.71,2.71,6.04.21,4.32-2.52-5.85-9.27-12.95-17.8-21.58-24.61-8.63-6.82-18.39-11.84-28.74-15.49-12.41-4.38-25.62-7.16-38.73-8.29-14.28-1.23-28.64-.47-42.92.43-12.53.79-25.25,1.98-37.78.77-4.51-.44-9.62-1.4-13.57-3.13-4.21-1.84-8.06-4.67-10.59-8.21-5.72-8.01-6.69-18.71-8-28.37-1.7-12.57-3.77-25-8.49-36.85s-10.48-22.27-16.91-32.73c-7.88-12.8-16.61-25.07-25.79-36.96-2.54-3.28-5.11-6.54-7.71-9.76-.85-1.05-2.65-.88-3.54,0-1.04,1.04-.85,2.48,0,3.54h0Z"/>
  <path class="cls-22" d="M23.1,322.28c9.4,12.19,18.43,24.69,26.77,37.63,6.88,10.66,13.36,21.64,18.75,33.14,2.44,5.21,4.6,10.53,6.28,16.04,1.82,5.96,3.13,12.07,4.24,18.2,1.84,10.17,2.85,20.93,7.41,30.35,10.13,20.9,36.57,19.71,56.27,18.73,13.84-.69,27.66-1.85,41.53-1.67,13.45.18,26.67,1.99,39.67,5.44,10.55,2.8,20.82,6.75,30.03,12.66,8.54,5.48,15.92,12.65,21.86,20.89,1.56,2.16,3.02,4.38,4.41,6.65,1.68,2.74,6.01.23,4.32-2.52-5.58-9.1-12.44-17.45-20.81-24.12-8.48-6.75-18.12-11.7-28.33-15.28-11.97-4.2-24.7-6.88-37.33-8.03-14.11-1.29-28.3-.59-42.41.24-12.3.73-24.76,1.83-37.07.7-9.34-.86-18.71-3.5-24.69-11.07-2.58-3.26-4.32-7.44-5.53-11.6-1.46-4.99-2.34-10.13-3.21-15.25-2.08-12.14-4.38-24.16-9.11-35.6s-10.4-21.71-16.66-31.98c-7.72-12.67-16.18-24.89-25.04-36.79-2.32-3.12-4.67-6.21-7.04-9.28-.82-1.07-2.15-1.64-3.42-.9-1.05.61-1.73,2.34-.9,3.42h0Z"/>
  <path class="cls-4" d="M27.13,331.45c8.91,12.13,17.54,24.48,25.61,37.19,6.67,10.5,13.02,21.26,18.43,32.47,2.46,5.11,4.65,10.18,6.43,15.56,1.91,5.76,3.36,11.67,4.63,17.6,2.12,9.84,3.54,20.3,8.39,29.26,10.86,20.11,36.74,18.98,56.4,18.06,13.61-.64,27.2-1.72,40.83-1.48s26.13,2.04,38.86,5.45c10.21,2.73,20.15,6.56,29.06,12.3,8.28,5.33,15.44,12.34,21.13,20.41,1.51,2.14,2.92,4.34,4.26,6.58,1.64,2.76,5.97.25,4.32-2.52-5.31-8.92-11.94-17.11-20.06-23.63s-17.63-11.45-27.58-14.95c-11.65-4.1-24.03-6.71-36.31-7.9-13.84-1.33-27.77-.71-41.62.05-12.23.67-24.61,1.71-36.85.61-9.26-.84-18.54-3.36-24.76-10.53-2.7-3.11-4.69-7.26-6.04-11.24-1.61-4.74-2.66-9.65-3.68-14.54-2.49-11.92-5.16-23.64-10-34.87-4.61-10.68-10.3-20.89-16.32-30.84-7.51-12.41-15.63-24.45-24.06-36.26-2.23-3.12-4.48-6.22-6.75-9.31-.8-1.09-2.17-1.63-3.42-.9-1.07.63-1.7,2.33-.9,3.42h0Z"/>
  <path class="cls-13" d="M31.72,340.36c8.42,12.06,16.64,24.27,24.44,36.74,6.46,10.34,12.68,20.88,18.1,31.8,2.47,4.97,4.77,10.02,6.64,15.25,1.96,5.48,3.52,11.1,4.95,16.74,2.4,9.48,4.24,19.59,9.3,28.11,11.47,19.33,36.6,18.42,56.22,17.58,13.36-.57,26.71-1.58,40.09-1.32,12.93.25,25.68,2.04,38.18,5.37,9.93,2.65,19.6,6.36,28.27,11.95,8.07,5.2,15.03,12.05,20.52,19.98,1.47,2.12,2.83,4.31,4.12,6.54,1.61,2.79,5.93.27,4.32-2.52-5.07-8.78-11.48-16.83-19.39-23.21s-17.25-11.22-26.98-14.63c-11.39-4-23.49-6.53-35.5-7.71-13.56-1.33-27.22-.77-40.8-.08-12.08.62-24.3,1.58-36.37.48-9.12-.83-18.47-3.33-24.8-10.15s-8.39-15.93-10.58-24.67c-2.88-11.51-5.83-22.86-10.74-33.71s-10.27-20.27-16.11-30c-7.3-12.16-15.08-24.02-23.08-35.72-2.13-3.12-4.29-6.24-6.45-9.34-.77-1.11-2.19-1.62-3.42-.9-1.09.64-1.67,2.31-.9,3.42h0Z"/>
  <path class="cls-8" d="M36.9,348.98c14.46,21.9,29.02,43.98,41.01,67.36,2.46,4.81,4.82,9.68,6.78,14.72,2.1,5.39,3.82,10.91,5.44,16.46,2.67,9.13,4.96,18.89,10.29,26.92,12.29,18.52,36.98,17.59,56.65,16.81,13.09-.52,26.18-1.44,39.28-1.11,12.54.32,24.91,2.09,37.03,5.35,9.72,2.61,19.19,6.26,27.65,11.79,7.68,5.01,14.32,11.64,19.49,19.28,1.43,2.11,2.75,4.29,4,6.52,1.57,2.81,5.89.29,4.32-2.52-4.79-8.58-10.95-16.44-18.58-22.68-7.77-6.35-16.69-10.95-26.13-14.3-11.14-3.95-22.99-6.43-34.74-7.63-13.25-1.36-26.59-.88-39.87-.26-11.93.56-23.97,1.44-35.89.41-9.13-.79-18.67-3.18-25.25-9.72s-9.01-15.12-11.51-23.59c-3.27-11.06-6.48-22.02-11.44-32.48-4.82-10.16-10.39-19.96-16.15-29.62-7.01-11.76-14.38-23.31-21.86-34.77-2.06-3.16-4.13-6.31-6.21-9.45-1.77-2.67-6.1-.17-4.32,2.52h0Z"/>
  <path class="cls-34" d="M42.68,357.3c13.62,21.86,27.58,43.64,39.6,66.43,2.47,4.69,4.88,9.43,6.93,14.32,2.18,5.18,4.01,10.48,5.8,15.8,2.96,8.79,5.68,18.18,11.28,25.72s14.13,12.43,23.5,14.44c10.84,2.33,22.14,2.02,33.14,1.62,12.79-.46,25.58-1.29,38.38-.92s24.29,2.09,36.11,5.25c9.47,2.53,18.71,6.08,26.95,11.46,7.55,4.93,14.04,11.49,19.01,19.07,1.33,2.03,2.56,4.12,3.71,6.25,1.53,2.83,5.84.31,4.32-2.52-4.53-8.42-10.46-16.11-17.86-22.21s-16.23-10.71-25.42-13.97c-10.84-3.85-22.35-6.25-33.77-7.47-12.98-1.39-26.07-.98-39.08-.43-11.8.5-23.7,1.31-35.49.31-9.04-.77-18.57-3.02-25.32-9.18s-9.63-14.16-12.45-22.3c-3.67-10.6-7.1-21.2-12.1-31.28-4.9-9.89-10.39-19.47-16-28.97-6.9-11.68-14.03-23.21-21.19-34.73-1.91-3.07-3.82-6.14-5.73-9.2-1.7-2.73-6.03-.22-4.32,2.52h0Z"/>
  <path class="cls-18" d="M49.08,365.32c12.71,21.73,26.02,43.14,38.05,65.25,2.51,4.61,4.97,9.26,7.15,14.04s4.18,9.92,6.11,14.95c3.33,8.66,6.56,17.6,12.43,24.92,13.28,16.55,36.99,15.86,56.19,15.27,12.62-.39,25.25-1.15,37.88-.75,11.92.38,23.72,2.09,35.25,5.16,9.26,2.47,18.28,5.93,26.32,11.21,7.26,4.77,13.48,11.12,18.2,18.47,1.31,2.03,2.5,4.14,3.62,6.28,1.48,2.86,5.8.33,4.32-2.52-4.29-8.28-10.02-15.84-17.22-21.81s-15.87-10.48-24.86-13.66c-10.6-3.75-21.85-6.07-33.02-7.27-12.71-1.38-25.53-1.02-38.29-.54-11.53.43-23.14,1.14-34.66.19-9.05-.75-18.65-2.91-25.62-8.82-6.55-5.55-10.24-13.5-13.39-21.44-4.04-10.13-7.76-20.32-12.81-30.02-11.04-21.19-23.73-41.51-35.86-62.08-1.83-3.1-3.66-6.21-5.48-9.32-1.62-2.78-5.95-.26-4.32,2.52h0Z"/>
  <path class="cls-14" d="M56.13,373.02c11.79,21.57,24.46,42.64,36.5,64.06,2.51,4.46,5.01,8.94,7.27,13.53,2.36,4.8,4.5,9.7,6.63,14.6,3.6,8.26,7.23,16.73,13.25,23.55,13.93,15.78,37.1,15.25,56.39,14.74,12.32-.33,24.64-1,36.97-.57,11.6.41,23.1,2.08,34.32,5.06,9.01,2.39,17.8,5.74,25.62,10.88,7.13,4.69,13.19,10.97,17.71,18.26,1.21,1.95,2.31,3.96,3.33,6.02,1.43,2.88,5.75.35,4.32-2.52-4.03-8.11-9.54-15.51-16.5-21.34s-15.41-10.24-24.15-13.34c-10.29-3.65-21.21-5.88-32.05-7.11-12.44-1.4-25-1.12-37.49-.71-11.52.37-23.12,1.02-34.62.05-8.99-.76-18.4-2.88-25.56-8.43-6.78-5.26-10.8-12.83-14.34-20.56-4.39-9.55-8.33-19.25-13.38-28.49-11.26-20.6-23.49-40.66-34.92-61.17-1.67-3-3.33-6.01-4.98-9.02-1.54-2.82-5.86-.3-4.32,2.52h0Z"/>
  <path class="cls-35" d="M63.85,380.4c10.87,21.4,22.9,42.14,34.94,62.88,2.5,4.31,5.03,8.61,7.37,13.01s4.7,9.26,6.99,13.92c3.89,7.91,7.93,15.99,14.11,22.4,14.46,15.01,36.99,14.76,56.33,14.35,12.16-.26,24.32-.87,36.47-.39,11.28.44,22.47,2.06,33.4,4.95,8.76,2.32,17.31,5.55,24.91,10.55,6.91,4.55,12.76,10.66,17.06,17.78,1.18,1.95,2.24,3.96,3.22,6.02.58,1.22,2.33,1.54,3.42.9,1.25-.73,1.48-2.2.9-3.42-3.78-7.94-9.05-15.18-15.78-20.88-6.9-5.84-14.95-10-23.44-13.02-9.99-3.55-20.57-5.7-31.09-6.94-12.17-1.43-24.47-1.22-36.69-.89-11.39.31-22.85.88-34.23-.06-9.19-.76-18.47-2.8-26.09-8.25-6.71-4.79-11.17-12-15-19.32-4.73-9.03-8.94-18.29-14.01-27.14-11.4-19.86-23.1-39.54-33.74-59.83-1.59-3.04-3.17-6.09-4.72-9.15-1.46-2.87-5.77-.34-4.32,2.52h0Z"/>
  <path class="cls-9" d="M72.26,387.43c9.92,21.16,21.31,41.56,33.31,61.6,5.1,8.51,10.02,17.09,14.82,25.78,4.2,7.6,8.67,15.32,15.03,21.35,15.05,14.24,37.04,14.22,56.47,13.91,11.92-.19,23.85-.72,35.77-.21,10.99.47,21.9,2.05,32.53,4.86,8.54,2.25,16.89,5.4,24.28,10.31,6.72,4.45,12.34,10.45,16.41,17.46,1.09,1.87,2.07,3.8,2.96,5.78.56,1.23,2.34,1.53,3.42.9,1.26-.74,1.46-2.19.9-3.42-3.54-7.8-8.61-14.91-15.14-20.48s-14.69-9.83-23.03-12.77c-9.77-3.44-20.11-5.5-30.39-6.7-11.91-1.39-23.93-1.23-35.9-.96-11.23.25-22.53.73-33.74-.24-9.21-.8-18.47-2.85-26.24-8.09-6.8-4.59-11.62-11.41-15.78-18.46-5.04-8.55-9.57-17.38-14.69-25.89-11.51-19.09-22.65-38.4-32.48-58.43-1.43-2.92-2.84-5.85-4.22-8.8-.57-1.22-2.33-1.53-3.42-.9-1.25.73-1.47,2.19-.9,3.42h0Z"/>
  <path class="cls-21" d="M81.38,394.11c8.94,20.81,19.62,40.81,31.52,60.07,5.07,8.2,10.15,16.39,15.22,24.59,4.55,7.36,9.44,14.78,16.03,20.49,15.52,13.44,36.88,13.75,56.34,13.55,11.68-.12,23.37-.57,35.05-.05,10.81.48,21.57,2.01,32.04,4.76,8.29,2.18,16.4,5.22,23.58,9.98,6.5,4.31,11.9,10.14,15.76,16.98,1.06,1.87,2,3.81,2.85,5.78.54,1.24,2.36,1.52,3.42.9,1.28-.75,1.43-2.18.9-3.42-3.31-7.67-8.19-14.65-14.54-20.11s-14.26-9.57-22.37-12.41c-9.49-3.33-19.51-5.3-29.48-6.49-11.71-1.4-23.54-1.29-35.31-1.1-11.15.18-22.36.58-33.48-.42-9.13-.82-18.29-2.83-26.15-7.74-6.91-4.32-12.16-10.71-16.66-17.47-5.42-8.14-10.28-16.65-15.5-24.92-11.51-18.22-22.04-37.05-31-56.66-1.34-2.93-2.64-5.87-3.91-8.83-.53-1.24-2.36-1.52-3.42-.9-1.28.75-1.43,2.17-.9,3.42h0Z"/>
  <path class="cls-43" d="M91.62,400.49c8.07,20.71,18.07,40.6,29.97,59.37,5.02,7.91,10.26,15.71,15.55,23.44,4.96,7.25,10.3,14.5,17.17,20.07,7.48,6.07,16.24,10.04,25.67,11.97,10.65,2.17,21.61,2.39,32.45,2.36,11.52-.03,23.04-.42,34.55.11,2.84.13,5.68.32,8.51.58,1.36.13,2.73.27,4.09.44.36.04.71.09,1.07.13-1.04-.13-.27-.04-.05,0,.82.12,1.63.24,2.45.37,4.82.76,9.62,1.69,14.36,2.9,4.34,1.11,8.59,2.48,12.75,4.13.64.25.34.47-.15-.07.08.09.45.19.59.25.49.21.97.43,1.45.65.95.44,1.89.9,2.81,1.38,1.8.94,3.56,1.96,5.26,3.08.75.49,1.49,1,2.21,1.53.38.28,1.42,1.34.41.29.36.38.86.69,1.26,1.02,1.47,1.23,2.86,2.55,4.17,3.94.67.72,1.33,1.46,1.95,2.22.17.2,1.02,1.33.54.65-.51-.71.08.1.15.21.18.24.36.48.53.73,1.16,1.61,2.22,3.3,3.17,5.04.48.87.94,1.76,1.37,2.66.23.48.46.97.67,1.46.03.08.28.58.26.59l-.25-.59c.08.2.17.4.25.61.99,2.41,3.37,4.39,6.15,3.49,2.33-.75,4.55-3.56,3.49-6.15-3.3-8.08-8-15.47-14.61-21.25s-14.54-9.9-22.87-12.84c-20.48-7.21-42.42-7.9-63.89-7.67-11.08.12-22.22.43-33.27-.57-1.22-.11-2.44-.24-3.66-.39-.31-.04-1.22-.14,0,0-.25-.03-.5-.07-.75-.11-.74-.11-1.48-.22-2.22-.35-2.26-.39-4.51-.86-6.73-1.47-1.19-.32-2.36-.68-3.52-1.07-1.09-.37-2.18-.93-3.29-1.23,1.03.28.56.24.25.1s-.62-.27-.93-.41c-.46-.21-.91-.42-1.36-.64-1.02-.51-2.03-1.05-3.02-1.62-.83-.48-1.64-.99-2.43-1.52-.44-.29-.87-.59-1.3-.89-.36-.25-.85-.82-1.26-.93l.52.4c-.16-.13-.33-.26-.49-.39-.16-.13-.32-.26-.48-.39-.4-.33-.8-.66-1.19-1-.78-.68-1.55-1.39-2.29-2.11-1.51-1.47-2.94-3.01-4.31-4.61-.63-.74-1.25-1.48-1.85-2.24-.19-.24-1.41-1.65-.43-.54-.4-.45-.74-.97-1.1-1.46-5.64-7.56-10.72-15.57-15.92-23.43-5.26-7.95-10.21-16.1-14.8-24.46-2.6-4.74-5.09-9.54-7.46-14.4-1.29-2.65-2.55-5.31-3.77-7.99-.56-1.24-1.12-2.48-1.67-3.73-.31-.7-.62-1.4-.92-2.11-.15-.35-.31-.71-.46-1.06-.06-.15-.58-1.35-.39-.9.27.65-.32-.77-.29-.7-.12-.29-.24-.58-.36-.87-.3-.73-.6-1.46-.9-2.19-.6-1.48-1.19-2.97-1.77-4.46-.95-2.43-3.4-4.38-6.15-3.49-2.36.76-4.51,3.54-3.49,6.15h0Z"/>
  <path class="cls-26" d="M107.4,406.43c7.07,20.25,16.37,39.75,28.06,57.75,4.99,7.68,10.36,15.15,15.9,22.44,5.58,7.34,11.51,14.24,18.94,19.78,16.39,12.2,37.48,13.22,57.14,13.3,11.36.05,22.72-.26,34.07.28,2.84.14,5.68.33,8.52.59,1.29.12,2.58.26,3.87.42.28.03.57.07.85.11,1.38.17-.69-.11.16.02.74.11,1.49.22,2.23.33,4.71.73,9.39,1.62,14.01,2.78,4.29,1.07,8.52,2.38,12.62,4.05.09.04.56.27.6.25-.14.08-.98-.42-.31-.13.49.21.97.43,1.45.65.95.44,1.89.89,2.81,1.37,1.71.89,3.39,1.86,5,2.91.79.52,1.57,1.06,2.33,1.62.19.14.38.33.59.44-.07-.04-.96-.76-.31-.24.42.34.84.68,1.25,1.03,1.42,1.2,2.77,2.48,4.03,3.85.63.68,1.24,1.39,1.83,2.11.12.15.25.31.37.46.65.8-.54-.76-.15-.19.31.45.65.88.96,1.33,1.11,1.58,2.11,3.23,3.01,4.94.44.83.86,1.68,1.25,2.54.11.24.22.49.33.73.43.94-.1-.14-.06-.16,0,0,.58,1.46.6,1.52.94,2.43,3.41,4.38,6.15,3.49,2.37-.77,4.5-3.54,3.49-6.15-3.05-7.93-7.58-15.19-13.98-20.86-6.48-5.74-14.17-9.69-22.3-12.53-20.11-7.04-41.7-7.67-62.78-7.57-10.93.05-21.91.26-32.8-.77-1.18-.11-2.36-.24-3.54-.39-.26-.03-.52-.06-.78-.1,1.2.18.28.04-.02,0-.7-.1-1.39-.21-2.09-.33-2.34-.39-4.66-.88-6.95-1.49s-4.45-1.3-6.61-2.14c-.35-.14-1.98-.95-.74-.28-.45-.24-.94-.41-1.41-.63-1.01-.47-2.01-.97-3-1.5-1.86-1-3.66-2.12-5.39-3.33-.35-.25-.7-.5-1.04-.75-.05-.04-.78-.56-.77-.58,0,0,.99.78.25.19-.83-.67-1.66-1.34-2.46-2.05-3.17-2.78-6.05-5.87-8.76-9.09-.7-.83-1.39-1.68-2.07-2.53-.29-.36-.58-.73-.87-1.1-.04-.06-.76-.97-.26-.33s-.39-.51-.48-.62c-1.41-1.85-2.79-3.73-4.16-5.61-2.71-3.74-5.43-7.48-8.06-11.29-5.24-7.59-10.06-15.48-14.43-23.6-2.5-4.64-4.86-9.36-7.08-14.15-1.19-2.58-2.34-5.17-3.45-7.79.08.18.36.86-.02-.04-.14-.35-.29-.69-.43-1.04-.26-.63-.52-1.26-.77-1.88-.57-1.42-1.14-2.84-1.69-4.27-1.07-2.79-2.1-5.6-3.09-8.42-.86-2.46-3.46-4.36-6.15-3.49-2.44.79-4.42,3.51-3.49,6.15h0Z"/>
  <path class="cls-5" d="M123.05,411.71c6.14,19.87,14.78,39.09,26.32,56.43,5.08,7.63,10.72,14.95,16.61,21.98,5.68,6.79,11.95,13.09,19.32,18.05,16.86,11.35,37.55,12.63,57.27,12.85,11.14.12,22.3-.1,33.43.46,2.69.14,5.37.32,8.05.57,1.29.12,2.57.26,3.85.41.35.04.71.09,1.06.13.28.04,1.24.17.15.02.67.1,1.34.19,2.01.29,4.69.71,9.35,1.58,13.96,2.73,4.11,1.02,8.17,2.26,12.1,3.84.13.05.63.35.74.3-.05.02-1.15-.5-.31-.13.44.19.87.38,1.3.58.9.41,1.79.84,2.67,1.29,1.71.88,3.37,1.84,4.98,2.89.74.49,1.47.99,2.19,1.52.2.15.39.3.59.44.56.4-.99-.8-.2-.15.38.31.76.61,1.13.93,1.4,1.2,2.73,2.48,3.97,3.84.59.65,1.15,1.32,1.7,2,.21.26.41.72-.24-.32.1.16.24.32.35.47.32.43.64.88.94,1.32,1.08,1.58,2.05,3.23,2.92,4.94.42.84.79,1.7,1.19,2.54.31.65-.47-1.18-.07-.17.08.2.16.4.24.6.2.5.39,1.01.57,1.52.88,2.45,3.44,4.37,6.15,3.49,2.42-.78,4.44-3.52,3.49-6.15-2.8-7.79-7.17-14.95-13.38-20.49s-13.84-9.47-21.79-12.24c-19.58-6.8-40.66-7.4-61.16-7.45-10.81-.02-21.67.09-32.44-.94-1.2-.12-2.41-.25-3.6-.39-.26-.03-.53-.06-.79-.1,1.17.19.25.03-.04-.01-.71-.1-1.42-.21-2.13-.33-2.34-.39-4.66-.86-6.95-1.44s-4.41-1.23-6.57-2.01c-.99-.36-2.02-.7-2.97-1.15,1.31.63-.39-.18-.71-.33-.52-.24-1.03-.48-1.54-.73-1.9-.94-3.75-1.97-5.54-3.1-.83-.53-1.66-1.07-2.47-1.64-.4-.28-.8-.57-1.2-.86-.22-.16-.44-.33-.66-.49-.79-.59.81.65-.03-.02-3.27-2.61-6.33-5.46-9.2-8.52-3.08-3.28-5.97-6.74-8.76-10.26-.71-.9-1.42-1.8-2.13-2.71-.02-.02-.8-1.03-.33-.42s-.32-.41-.33-.43c-.4-.53-.81-1.05-1.21-1.58-1.27-1.67-2.53-3.34-3.75-5.04-5.2-7.24-9.88-14.86-14.04-22.74-2.4-4.55-4.62-9.19-6.68-13.91-.23-.52-.45-1.04-.67-1.56-.55-1.27.24.6-.08-.19-.14-.33-.28-.66-.41-1-.53-1.28-1.04-2.56-1.55-3.85-1.04-2.66-2.03-5.33-2.97-8.03s-1.85-5.48-2.7-8.24c-.77-2.5-3.53-4.34-6.15-3.49s-4.32,3.47-3.49,6.15h0Z"/>
  <path class="cls-12" d="M137.79,416.82c5.2,19.43,13.14,38.32,24.48,54.98,5.03,7.39,10.72,14.41,16.78,20.97,5.99,6.49,12.67,12.46,20.25,17.05,17.31,10.48,37.67,11.99,57.43,12.35,10.99.2,21.99.06,32.98.66,2.61.14,5.23.33,7.83.58,1.28.12,2.57.26,3.85.41.28.03.56.07.85.1,0,0,1.39.19.6.08s.53.08.57.08c.39.06.78.11,1.16.17,4.48.67,8.94,1.5,13.34,2.58,3.99.98,7.93,2.17,11.75,3.69.25.1.49.2.74.3.61.25.37.48-.17-.07.24.25.83.36,1.15.51.94.43,1.87.88,2.79,1.35,1.6.83,3.17,1.74,4.68,2.73.74.48,1.46.99,2.17,1.52.15.11.31.25.47.35-1.09-.67-.5-.4-.21-.15.37.31.75.61,1.12.93,1.35,1.16,2.63,2.4,3.81,3.73.57.64,1.07,1.38,1.67,2-.06-.06-.73-.98-.25-.32.11.16.23.31.35.47.31.44.62.88.92,1.32,1.02,1.54,1.93,3.15,2.74,4.82.18.37.35.74.52,1.12.05.12.42,1.07.12.26s.06.16.11.27c.36.89.68,1.8.99,2.71.83,2.48,3.48,4.35,6.15,3.49,2.46-.8,4.38-3.49,3.49-6.15-2.56-7.65-6.76-14.7-12.78-20.12s-13.42-9.21-21.13-11.88c-19.15-6.63-39.84-7.19-59.89-7.38-10.68-.1-21.4-.08-32.04-1.12-1.23-.12-2.46-.25-3.69-.41-.27-.03-.54-.07-.81-.1-.83-.1,1.23.18-.08-.01-.66-.1-1.33-.2-1.99-.3-2.34-.38-4.66-.84-6.97-1.39s-4.62-1.22-6.88-1.99c-.97-.33-1.93-.68-2.89-1.05-.48-.19-.99-.47-1.49-.59.99.25.53.23.22.09s-.64-.28-.96-.42c-3.84-1.73-7.51-3.82-10.97-6.22-.83-.58-1.65-1.18-2.46-1.79-.22-.16-.71-.59.2.16-.17-.14-.36-.28-.53-.42-.49-.39-.98-.78-1.46-1.18-1.64-1.36-3.23-2.78-4.78-4.25-3.26-3.1-6.31-6.4-9.25-9.8-1.53-1.77-3.03-3.57-4.51-5.38-.63-.77-1.26-1.55-1.87-2.33-.13-.17-.26-.33-.39-.5-.57-.73.2.25.2.26.02-.02-1.01-1.33-1.07-1.41-5.19-6.94-9.75-14.33-13.71-22.03-1.11-2.15-2.16-4.33-3.18-6.53-.51-1.1-1-2.21-1.49-3.33-.09-.21-.85-1.99-.39-.89-.27-.64-.53-1.28-.8-1.93-2.03-5-3.84-10.08-5.44-15.23-.83-2.67-1.6-5.36-2.32-8.06-.68-2.53-3.59-4.32-6.15-3.49s-4.22,3.44-3.49,6.15h0Z"/>
  <path class="cls-11" d="M151.83,421.57c4.26,18.84,11.43,37.3,22.42,53.27,4.95,7.18,10.64,13.89,16.83,20.03s13.25,11.8,20.99,16.04,16.91,7.46,25.96,9.19c10.46,2,21.13,2.57,31.76,2.85s21.44.24,32.14.84c2.61.14,5.21.33,7.81.57,1.21.11,2.41.24,3.62.37.63.07,1.26.15,1.89.23.28.04,1.24.17.13.02.39.06.78.11,1.17.17,4.43.64,8.85,1.43,13.21,2.48,3.95.94,7.85,2.1,11.64,3.58.31.12.87.51,1.19.48-.6.07-.86-.37-.17-.07.19.08.38.17.58.25.9.4,1.79.82,2.66,1.27,1.61.82,3.18,1.72,4.69,2.71.74.48,1.46.99,2.17,1.51.15.11.31.25.47.35-.07-.04-.96-.77-.33-.25.37.31.75.61,1.11.92,1.31,1.12,2.54,2.33,3.69,3.62.29.32.57.65.84.98s.89,1.51.2.23c.4.75,1.04,1.43,1.5,2.14.97,1.5,1.84,3.08,2.59,4.7.1.21.74,1.57.37.81s.05.15.1.27c.08.19.15.39.23.59.34.9.64,1.81.93,2.73.77,2.5,3.53,4.34,6.15,3.49s4.32-3.47,3.49-6.15c-2.32-7.54-6.38-14.51-12.26-19.82-5.97-5.4-13.18-9.02-20.76-11.59-18.78-6.38-39.1-6.86-58.73-7.19-10.56-.17-21.15-.27-31.67-1.34-1.26-.13-2.51-.27-3.76-.43-.23-.03-.99-.12.09.02-.27-.03-.55-.08-.82-.11-.68-.1-1.36-.2-2.04-.31-2.39-.38-4.76-.84-7.12-1.39-4.44-1.03-8.81-2.39-13.03-4.12-.16-.07-.89-.38-.23-.09.76.33-.32-.14-.39-.17-.43-.19-.87-.39-1.3-.59-1.01-.47-2.02-.96-3.01-1.47-1.86-.96-3.69-2-5.46-3.11s-3.51-2.29-5.2-3.54c-.41-.3-.82-.69-1.26-.95.12.07.87.69.18.13-.18-.15-.37-.29-.55-.44-.88-.7-1.75-1.42-2.6-2.16-3.42-2.93-6.63-6.1-9.7-9.39-1.56-1.68-3.09-3.39-4.58-5.14-.57-.67-1.14-1.35-1.69-2.03-.3-.37-.6-.73-.89-1.1-.13-.17-.26-.33-.39-.5l-.2-.25c-.33-.42-.26-.33.19.25-.27-.1-.6-.78-.78-1.03-.29-.39-.58-.78-.87-1.17-.62-.84-1.23-1.69-1.82-2.55-1.16-1.68-2.29-3.38-3.37-5.11-2.3-3.68-4.4-7.47-6.33-11.36-1.02-2.07-1.99-4.16-2.91-6.27-.13-.31-.71-1.64-.27-.62-.26-.61-.51-1.23-.76-1.85-.46-1.13-.9-2.26-1.33-3.4-1.81-4.81-3.39-9.72-4.74-14.68-.72-2.65-1.38-5.32-1.99-8.01s-3.66-4.3-6.15-3.49c-2.68.87-4.11,3.41-3.49,6.15h0Z"/>
  <path class="cls-37" d="M165.67,425.89c3.38,18.3,9.77,36.38,20.47,51.73,9.79,14.04,22.96,26.39,38.37,34.01,8.37,4.14,17.31,6.99,26.48,8.68,10.42,1.92,21.02,2.58,31.59,2.95,10.57.36,21.16.41,31.72,1.04,2.61.15,5.22.35,7.82.59,1.21.11,2.41.24,3.61.38.63.07,1.26.15,1.89.23.22.03.99.13-.08-.01l1.33.18c-.68-.09-.74-.1-.17-.02,4.3.62,8.58,1.34,12.81,2.32,3.89.91,7.73,2.02,11.46,3.46.3.12,1.03.56,1.33.53-.07,0-1.13-.49-.32-.14.19.08.38.17.57.25.85.38,1.69.77,2.51,1.19,1.6.81,3.17,1.7,4.67,2.69.65.43,1.29.87,1.92,1.33,1.13.84-.62-.53.25.19.37.3.74.61,1.1.92,1.26,1.09,2.44,2.26,3.53,3.52.28.32.55.65.82.98.72.86-.65-.9.18.23.51.7,1,1.41,1.46,2.15.92,1.47,1.67,3.02,2.42,4.58.3.63-.47-1.2-.09-.21.07.19.15.38.23.57.15.39.29.78.43,1.17.32.9.6,1.82.86,2.74.71,2.52,3.57,4.33,6.15,3.49s4.25-3.45,3.49-6.15c-2.08-7.39-5.97-14.26-11.66-19.47-5.83-5.34-12.96-8.88-20.41-11.36-3.84-1.28-7.79-2.27-11.76-3.07-2.2-.44-4.41-.83-6.62-1.17-1.02-.16-2.04-.31-3.06-.45-.57-.08-1.14-.16-1.72-.23,1.43.19-.44-.06-1.01-.14-.7-.09-1.4-.18-2.09-.26-10.32-1.22-20.74-1.46-31.12-1.72s-21.2-.46-31.75-1.56c-1.22-.13-2.43-.27-3.65-.42-.16-.02-1.06-.14-.4-.05s-.24-.03-.39-.06c-.7-.1-1.4-.2-2.1-.31-2.37-.37-4.72-.82-7.06-1.33-4.44-.98-8.82-2.24-13.08-3.82-.98-.37-1.96-.75-2.93-1.15-.9-.37.12,0,.18.08-.07-.09-.53-.23-.67-.29-.56-.24-1.11-.49-1.66-.75-1.97-.91-3.91-1.9-5.8-2.96-3.67-2.06-7.29-4.36-10.57-6.99,1.06.85-.38-.31-.58-.47-.43-.35-.86-.7-1.29-1.05-.86-.72-1.71-1.45-2.55-2.19-1.71-1.52-3.37-3.1-4.99-4.72-2.78-2.8-5.44-5.73-7.9-8.81-.13-.17-.61-.97-.78-1,.33.04.64.84.1.12-.13-.17-.26-.34-.39-.51-.62-.82-1.22-1.66-1.81-2.5-1.12-1.6-2.19-3.22-3.22-4.88-2.21-3.56-4.2-7.24-6-11.02-.42-.89-.84-1.8-1.24-2.7-.23-.52-.45-1.04-.68-1.56-.31-.72.46,1.13-.01-.03-.12-.3-.24-.59-.36-.89-.86-2.12-1.67-4.27-2.41-6.44-1.62-4.71-2.99-9.51-4.12-14.36-.6-2.57-1.13-5.15-1.61-7.74s-3.73-4.27-6.15-3.49c-2.76.89-4,3.39-3.49,6.15h0Z"/>
  <path class="cls-36" d="M180.37,429.77c2.52,17.69,8.11,35.35,18.43,50.1,9.77,13.97,23.38,25.32,39,32.19,18.46,8.12,38.44,10.21,58.4,11.07,10.52.45,21.05.61,31.55,1.27,2.47.16,4.93.34,7.4.57,1.21.11,2.41.24,3.61.37.56.06,1.12.13,1.68.2.35.04.69.09,1.04.13.15.02,1.3.17.52.07-.71-.09.12.02.29.04.25.04.51.07.76.11.57.08,1.13.16,1.7.25,1.11.17,2.22.35,3.33.55,2.02.36,4.04.75,6.04,1.21,3.83.87,7.61,1.94,11.28,3.34.4.15.79.31,1.18.47.17.07.4.19.58.24-1.05-.26-.67-.29-.33-.14.84.38,1.68.76,2.51,1.17,1.55.78,3.07,1.63,4.52,2.58.69.45,1.35.93,2.02,1.41s-.9-.73.12.1c.37.3.73.6,1.09.91,1.2,1.05,2.34,2.19,3.38,3.4.25.29.48.58.72.87.64.77-.57-.78-.18-.23.11.15.23.3.34.46.5.69.98,1.41,1.42,2.14s.83,1.42,1.2,2.15c.18.35.35.7.52,1.06.08.18.16.36.25.54.46.98-.43-1.11-.04-.09.64,1.66,1.19,3.33,1.63,5.05.64,2.54,3.62,4.31,6.15,3.49s4.18-3.43,3.49-6.15c-1.83-7.25-5.56-14-11.07-19.1s-12.63-8.67-19.9-11.06c-8.28-2.73-16.98-4.09-25.62-5.1-10.3-1.2-20.68-1.51-31.03-1.85s-20.99-.66-31.43-1.77c-1.25-.13-2.51-.28-3.76-.44-.15-.02-1.08-.14-.43-.05s-.28-.04-.43-.06c-.72-.1-1.45-.21-2.17-.32-2.38-.37-4.76-.8-7.12-1.29-4.42-.92-8.79-2.08-13.08-3.51-2.1-.7-4.17-1.49-6.22-2.32-.23-.09-.89-.34.15.07-.23-.09-.46-.2-.69-.3-.46-.2-.91-.4-1.37-.61-1.02-.46-2.03-.94-3.03-1.44-3.88-1.94-7.62-4.16-11.18-6.65-.82-.57-1.63-1.16-2.43-1.76-.2-.15-.41-.29-.6-.45.82.7.3.24.12.09-.5-.39-.99-.78-1.48-1.18-1.73-1.42-3.42-2.9-5.04-4.44-2.73-2.59-5.32-5.33-7.7-8.24-.26-.32-.53-.65-.78-.98-.08-.1-.66-.94-.19-.24.41.62.03.03-.09-.12-.58-.77-1.15-1.54-1.7-2.32-1.1-1.56-2.16-3.15-3.16-4.78-2.08-3.39-3.94-6.91-5.58-10.53-.2-.44-.39-.88-.59-1.32-.12-.28-.25-.55-.36-.84.05.14.42,1.02.08.18-.42-1.03-.83-2.07-1.23-3.12-.77-2.04-1.48-4.11-2.12-6.19-1.44-4.61-2.59-9.3-3.5-14.04-.48-2.48-.89-4.98-1.24-7.48s-3.81-4.25-6.15-3.49c-2.85.92-3.89,3.37-3.49,6.15h0Z"/>
  <path class="cls-46" d="M195.77,431.89c1.74,17.43,6.29,34.96,16.35,49.53,9.86,14.27,23.99,24.5,40.01,30.88,18.48,7.36,38.66,9.22,58.36,10.24,10.34.54,20.69.81,31.02,1.49,4.84.32,9.67.74,14.49,1.35.32.04.64.07.96.12-.15-.02-1.12-.16-.19-.02.5.07,1,.14,1.51.22,1.11.16,2.22.34,3.33.53,2.02.34,4.03.73,6.03,1.17,3.71.82,7.39,1.84,10.95,3.17.4.15.79.3,1.18.46.19.08.39.16.58.24.8.32-.26-.09-.33-.14.65.51,1.75.78,2.5,1.16,1.5.74,2.97,1.57,4.37,2.48.64.42,1.27.85,1.89,1.31,1.05.78-.52-.44.11.08.36.3.73.6,1.08.91,1.19,1.04,2.31,2.17,3.33,3.38.24.28.46.59.7.87-1-1.09-.19-.23.06.11.49.69.95,1.4,1.38,2.13.39.66.75,1.34,1.09,2.02.19.39.36.8.55,1.19.29.57-.38-.98-.16-.38.09.23.19.46.27.69.63,1.65,1.11,3.34,1.5,5.06.57,2.56,3.67,4.3,6.15,3.49,2.68-.87,4.1-3.41,3.49-6.15-1.59-7.1-5.14-13.75-10.47-18.74-5.48-5.13-12.31-8.46-19.39-10.77-8.14-2.65-16.69-3.94-25.18-4.9-9.99-1.13-20.06-1.53-30.1-1.95-10.49-.44-21-.87-31.45-1.96-1.29-.13-2.58-.28-3.87-.44-.6-.07-1.21-.15-1.81-.23-.8-.1.77.11-.02,0-.37-.05-.75-.1-1.12-.16-2.35-.34-4.7-.72-7.03-1.16-4.53-.85-9.02-1.89-13.44-3.19-2.15-.63-4.28-1.32-6.39-2.08-1.04-.37-2.08-.77-3.11-1.17-.48-.19-.96-.39-1.44-.58-.67-.27.79.34.12.05-.3-.13-.59-.26-.89-.39-3.99-1.76-7.86-3.79-11.55-6.11-1.84-1.16-3.64-2.4-5.39-3.71-.2-.15-.42-.3-.62-.47.81.68.27.21.09.07-.46-.36-.91-.73-1.36-1.1-.85-.7-1.69-1.42-2.51-2.16-2.65-2.38-5.13-4.93-7.41-7.67-.26-.31-.52-.63-.78-.95-.15-.18-1.08-1.35-.56-.7s-.35-.47-.45-.61c-.28-.38-.56-.76-.83-1.14-1.05-1.47-2.04-2.98-2.98-4.52-1.98-3.25-3.69-6.64-5.22-10.13-.36-.81.05.1.09.23-.07-.22-.18-.44-.27-.65-.2-.49-.4-.99-.59-1.49-.37-.95-.72-1.91-1.06-2.88-.7-2-1.33-4.02-1.9-6.07-1.23-4.4-2.17-8.89-2.88-13.4-.09-.56-.17-1.13-.25-1.69-.04-.29-.08-.57-.12-.86.14,1.07.01.09-.02-.18-.16-1.25-.29-2.5-.42-3.75-.26-2.59-2.11-5.13-5-5-2.49.11-5.28,2.21-5,5h0Z"/>
  <path class="cls-7" d="M212.25,434.87c.64,11.45,2.52,23.01,6.84,33.68,3.66,9.04,8.79,17.35,15.7,24.28,6.17,6.19,13.56,11.17,21.46,14.89s16.98,6.62,25.89,8.54,18.84,3.22,28.35,4.09,18.38,1.32,27.58,1.8c8.73.45,17.46.89,26.16,1.71,2.07.19,4.13.41,6.19.66.49.06.98.12,1.46.18.21.03.42.06.64.08.92.12-1.45-.2-.34-.04.98.14,1.96.28,2.94.43,3.65.57,7.29,1.28,10.87,2.21,1.67.43,3.33.92,4.96,1.46.8.27,1.6.55,2.38.85.35.13.7.27,1.05.41.18.07.37.15.55.23.61.24-.9-.38-.78-.33.13.06.27.12.41.18,2.8,1.24,5.51,2.68,7.99,4.49.15.11.29.22.44.32.74.54-.89-.72-.48-.37.28.23.56.45.83.68.56.47,1.11.96,1.63,1.48s1.03,1.04,1.51,1.58c.22.25.43.5.64.76.11.14.22.28.33.41.49.6-.89-1.2-.34-.43.85,1.18,1.65,2.39,2.33,3.68.35.67.67,1.36.98,2.05.29.63-.57-1.42-.23-.55.07.18.14.35.21.52.14.35.26.71.39,1.07.51,1.5.9,3.04,1.2,4.6.49,2.57,3.72,4.28,6.15,3.49,2.75-.89,4.02-3.39,3.49-6.15-1.28-6.67-4.46-12.95-9.27-17.77s-11.18-8.15-17.68-10.45c-7.27-2.57-14.92-3.85-22.55-4.84-8.39-1.09-16.84-1.64-25.29-2.11-9.14-.51-18.29-.91-27.43-1.55-4.62-.32-9.23-.71-13.84-1.2-2.25-.24-4.5-.52-6.75-.8-.65-.08,1.42.2.28.04-.28-.04-.56-.08-.84-.12-.59-.08-1.18-.17-1.78-.26-1.14-.17-2.29-.35-3.43-.54-8.73-1.45-17.41-3.48-25.71-6.57-.99-.37-1.97-.75-2.95-1.15-.24-.1-.48-.21-.73-.3,1.65.65.68.29.29.12-.51-.22-1.02-.44-1.53-.67-1.92-.87-3.82-1.81-5.67-2.82s-3.63-2.08-5.38-3.23c-.88-.58-1.76-1.19-2.61-1.81-.39-.28-.77-.57-1.16-.86-.8-.6,1.03.82.25.19-.23-.18-.45-.36-.68-.54-3.29-2.64-6.33-5.6-9.04-8.84-.34-.41-.68-.82-1.01-1.23-.26-.33-.88-1.17.17.22-.18-.24-.37-.48-.55-.72-.65-.87-1.27-1.75-1.87-2.65-1.26-1.87-2.42-3.81-3.48-5.81-.56-1.05-1.09-2.1-1.59-3.18-.23-.5-.46-1-.68-1.5-.12-.27-.23-.54-.35-.81-.3-.69.25.59.24.58-.07-.21-.17-.42-.26-.62-.93-2.28-1.74-4.61-2.46-6.96-.79-2.59-1.45-5.21-2-7.86-.28-1.35-.54-2.71-.77-4.07-.12-.7-.23-1.4-.33-2.1-.05-.36-.1-.71-.15-1.07-.03-.18-.09-.69.02.13.12.91,0,.06-.02-.15-.38-3-.64-6.02-.81-9.05-.15-2.61-2.19-5.13-5-5-2.58.12-5.16,2.2-5,5h0Z"/>
</svg>