<?xml version="1.0" standalone="no"?>
<!DOCTYPE svg PUBLIC "-//W3C//DTD SVG 1.1//EN" "http://www.w3.org/Graphics/SVG/1.1/DTD/svg11.dtd">
<svg xmlns="http://www.w3.org/2000/svg" xmlns:xlink="http://www.w3.org/1999/xlink" id="Capa_1" data-name="Capa 1" viewBox="0 0 424.85 563.74" width="424.8500061035156" height="563.739990234375">
  <defs>
    <style>
      .cls-1 {
        stroke: url(#Degradado_sin_nombre_269-12);
      }

      .cls-1, .cls-2, .cls-3, .cls-4, .cls-5, .cls-6, .cls-7, .cls-8, .cls-9, .cls-10, .cls-11, .cls-12, .cls-13, .cls-14, .cls-15, .cls-16, .cls-17, .cls-18, .cls-19, .cls-20, .cls-21, .cls-22, .cls-23, .cls-24 {
        fill: none;
      }

      .cls-1, .cls-2, .cls-3, .cls-4, .cls-5, .cls-6, .cls-7, .cls-8, .cls-9, .cls-10, .cls-11, .cls-13, .cls-14, .cls-15, .cls-16, .cls-17, .cls-18, .cls-19, .cls-20, .cls-21, .cls-22, .cls-23, .cls-24 {
        stroke-linecap: round;
        stroke-linejoin: round;
        stroke-width: 12px;
      }

      .cls-2 {
        stroke: url(#Degradado_sin_nombre_269-13);
      }

      .cls-3 {
        stroke: url(#Degradado_sin_nombre_269-22);
      }

      .cls-4 {
        stroke: url(#Degradado_sin_nombre_269-23);
      }

      .cls-5 {
        stroke: url(#Degradado_sin_nombre_269-17);
      }

      .cls-6 {
        stroke: url(#Degradado_sin_nombre_269-6);
      }

      .cls-7 {
        stroke: url(#Degradado_sin_nombre_269-3);
      }

      .cls-8 {
        stroke: url(#Degradado_sin_nombre_269-5);
      }

      .cls-9 {
        stroke: url(#Degradado_sin_nombre_269-20);
      }

      .cls-10 {
        stroke: url(#Degradado_sin_nombre_269-14);
      }

      .cls-11 {
        stroke: url(#Degradado_sin_nombre_269-21);
      }

      .cls-12 {
        stroke-width: 0px;
      }

      .cls-13 {
        stroke: url(#Degradado_sin_nombre_269);
      }

      .cls-14 {
        stroke: url(#Degradado_sin_nombre_269-18);
      }

      .cls-15 {
        stroke: url(#Degradado_sin_nombre_269-9);
      }

      .cls-16 {
        stroke: url(#Degradado_sin_nombre_269-16);
      }

      .cls-17 {
        stroke: url(#Degradado_sin_nombre_269-10);
      }

      .cls-18 {
        stroke: url(#Degradado_sin_nombre_269-19);
      }

      .cls-19 {
        stroke: url(#Degradado_sin_nombre_269-2);
      }

      .cls-20 {
        stroke: url(#Degradado_sin_nombre_269-11);
      }

      .cls-21 {
        stroke: url(#Degradado_sin_nombre_269-15);
      }

      .cls-22 {
        stroke: url(#Degradado_sin_nombre_269-4);
      }

      .cls-23 {
        stroke: url(#Degradado_sin_nombre_269-8);
      }

      .cls-24 {
        stroke: url(#Degradado_sin_nombre_269-7);
      }
    </style>
    <linearGradient id="Degradado_sin_nombre_269" data-name="Degradado sin nombre 269" x1="-722.88" y1="2685.6" x2="-732.4" y2="2642.55" gradientTransform="translate(-1871.67 -1875.22) rotate(-61.04) scale(1.14 1)" gradientUnits="userSpaceOnUse">
      <stop offset="0" stop-color="#ff6ac9" stop-opacity="0"/>
      <stop offset="1" stop-color="#e72863"/>
    </linearGradient>
    <linearGradient id="Degradado_sin_nombre_269-2" data-name="Degradado sin nombre 269" x1="-640.67" y1="2675.66" x2="-649.52" y2="2635.6" gradientTransform="translate(-1776.98 -1815.07) rotate(-59) scale(1.12 .99) skewX(.05)" xlink:href="#Degradado_sin_nombre_269"/>
    <linearGradient id="Degradado_sin_nombre_269-3" data-name="Degradado sin nombre 269" x1="-563.04" y1="2655.41" x2="-571.28" y2="2618.13" gradientTransform="translate(-1681.14 -1756.8) rotate(-56.9) scale(1.11 .97) skewX(.11)" xlink:href="#Degradado_sin_nombre_269"/>
    <linearGradient id="Degradado_sin_nombre_269-4" data-name="Degradado sin nombre 269" x1="-487.45" y1="2625.15" x2="-495.13" y2="2590.4" gradientTransform="translate(-1586.02 -1697.8) rotate(-54.76) scale(1.09 .96) skewX(.16)" xlink:href="#Degradado_sin_nombre_269"/>
    <linearGradient id="Degradado_sin_nombre_269-5" data-name="Degradado sin nombre 269" x1="-416.31" y1="2583.92" x2="-423.62" y2="2550.85" gradientTransform="translate(-1490.18 -1638.38) rotate(-52.56) scale(1.08 .95) skewX(.21)" xlink:href="#Degradado_sin_nombre_269"/>
    <linearGradient id="Degradado_sin_nombre_269-6" data-name="Degradado sin nombre 269" x1="-349.27" y1="2534.69" x2="-356.74" y2="2500.92" gradientTransform="translate(-1395.49 -1579.38) rotate(-50.33) scale(1.07 .94) skewX(.24)" xlink:href="#Degradado_sin_nombre_269"/>
    <linearGradient id="Degradado_sin_nombre_269-7" data-name="Degradado sin nombre 269" x1="-287.49" y1="2477.01" x2="-295.32" y2="2441.55" gradientTransform="translate(-1300.36 -1519.96) rotate(-48.06) scale(1.07 .93) skewX(.28)" xlink:href="#Degradado_sin_nombre_269"/>
    <linearGradient id="Degradado_sin_nombre_269-8" data-name="Degradado sin nombre 269" x1="-233.28" y1="2410.7" x2="-241.45" y2="2373.75" gradientTransform="translate(-1204.53 -1461.68) rotate(-45.76) scale(1.06 .92) skewX(.31)" xlink:href="#Degradado_sin_nombre_269"/>
    <linearGradient id="Degradado_sin_nombre_269-9" data-name="Degradado sin nombre 269" x1="-183.74" y1="2335.8" x2="-192.18" y2="2297.6" gradientTransform="translate(-1109.84 -1401.54) rotate(-43.44) scale(1.06 .92) skewX(.33)" xlink:href="#Degradado_sin_nombre_269"/>
    <linearGradient id="Degradado_sin_nombre_269-10" data-name="Degradado sin nombre 269" x1="-142.93" y1="2255.4" x2="-151.59" y2="2216.22" gradientTransform="translate(-1014.71 -1343.26) rotate(-41.1) scale(1.05 .92) skewX(.35)" xlink:href="#Degradado_sin_nombre_269"/>
    <linearGradient id="Degradado_sin_nombre_269-11" data-name="Degradado sin nombre 269" x1="-109.1" y1="2166.67" x2="-117.92" y2="2126.8" gradientTransform="translate(-918.87 -1283.12) rotate(-38.76) scale(1.05 .91) skewX(.36)" xlink:href="#Degradado_sin_nombre_269"/>
    <linearGradient id="Degradado_sin_nombre_269-12" data-name="Degradado sin nombre 269" x1="-84.35" y1="2074.9" x2="-93.25" y2="2034.63" gradientTransform="translate(-823.03 -1224.84) rotate(-36.41) scale(1.05 .91) skewX(.36)" xlink:href="#Degradado_sin_nombre_269"/>
    <linearGradient id="Degradado_sin_nombre_269-13" data-name="Degradado sin nombre 269" x1="-64.67" y1="1978.9" x2="-73.6" y2="1938.5" gradientTransform="translate(-729.06 -1164.7) rotate(-34.08) scale(1.06 .91) skewX(.36)" xlink:href="#Degradado_sin_nombre_269"/>
    <linearGradient id="Degradado_sin_nombre_269-14" data-name="Degradado sin nombre 269" x1="-55.39" y1="1880.84" x2="-64.28" y2="1840.62" gradientTransform="translate(-633.22 -1106.42) rotate(-31.76) scale(1.06 .92) skewX(.34)" xlink:href="#Degradado_sin_nombre_269"/>
    <linearGradient id="Degradado_sin_nombre_269-15" data-name="Degradado sin nombre 269" x1="-52.52" y1="1779.38" x2="-61.31" y2="1739.63" gradientTransform="translate(-537.38 -1046.28) rotate(-29.46) scale(1.07 .92) skewX(.33)" xlink:href="#Degradado_sin_nombre_269"/>
    <linearGradient id="Degradado_sin_nombre_269-16" data-name="Degradado sin nombre 269" x1="-56.89" y1="1679.79" x2="-65.52" y2="1640.75" gradientTransform="translate(-442.26 -988) rotate(-27.2) scale(1.08 .92) skewX(.3)" xlink:href="#Degradado_sin_nombre_269"/>
    <linearGradient id="Degradado_sin_nombre_269-17" data-name="Degradado sin nombre 269" x1="-66.84" y1="1580.2" x2="-75.41" y2="1541.45" gradientTransform="translate(-347.57 -928.57) rotate(-24.97) scale(1.09 .93) skewX(.27)" xlink:href="#Degradado_sin_nombre_269"/>
    <linearGradient id="Degradado_sin_nombre_269-18" data-name="Degradado sin nombre 269" x1="-82.67" y1="1483.17" x2="-91.53" y2="1443.09" gradientTransform="translate(-252.44 -869.58) rotate(-22.78) scale(1.1 .94) skewX(.23)" xlink:href="#Degradado_sin_nombre_269"/>
    <linearGradient id="Degradado_sin_nombre_269-19" data-name="Degradado sin nombre 269" x1="-104.2" y1="1387.49" x2="-113.78" y2="1344.17" gradientTransform="translate(-156.6 -810.15) rotate(-20.64) scale(1.11 .95) skewX(.2)" xlink:href="#Degradado_sin_nombre_269"/>
    <linearGradient id="Degradado_sin_nombre_269-20" data-name="Degradado sin nombre 269" x1="-130.19" y1="1294.52" x2="-140.52" y2="1247.77" gradientTransform="translate(-60.76 -751.16) rotate(-18.55) scale(1.12 .96) skewX(.15)" xlink:href="#Degradado_sin_nombre_269"/>
    <linearGradient id="Degradado_sin_nombre_269-21" data-name="Degradado sin nombre 269" x1="-158.04" y1="1204.57" x2="-169.17" y2="1154.2" gradientTransform="translate(33.21 -691.73) rotate(-16.52) scale(1.14 .97) skewX(.1)" xlink:href="#Degradado_sin_nombre_269"/>
    <linearGradient id="Degradado_sin_nombre_269-22" data-name="Degradado sin nombre 269" x1="-190.51" y1="1117.14" x2="-202.47" y2="1063.04" gradientTransform="translate(129.05 -632.74) rotate(-14.54) scale(1.16 .99) skewX(.05)" xlink:href="#Degradado_sin_nombre_269"/>
    <linearGradient id="Degradado_sin_nombre_269-23" data-name="Degradado sin nombre 269" x1="-225.08" y1="1032.34" x2="-237.89" y2="974.4" gradientTransform="translate(224.89 -573.31) rotate(-12.62) scale(1.17 1)" xlink:href="#Degradado_sin_nombre_269"/>
  </defs>
  <path class="cls-13" d="M40.5,246.38C-13.44,214.25,121.75,84.29,76.49,30.79"/>
  <path class="cls-19" d="M71.08,257.18c-52.27-34.81,89.69-157.96,47.21-213.68"/>
  <path class="cls-7" d="M96.43,269.83c-50.6-37.49,98.14-153.82,58.44-211.77"/>
  <path class="cls-22" d="M116.9,284.11c-48.94-40.17,106.59-149.68,69.66-209.86"/>
  <path class="cls-8" d="M132.84,299.78c-47.27-42.84,115.03-145.53,80.89-207.96"/>
  <path class="cls-6" d="M144.58,316.61c-45.6-45.52,123.48-141.39,92.12-206.05"/>
  <path class="cls-24" d="M152.47,334.36c-43.93-48.2,131.92-137.25,103.34-204.14"/>
  <path class="cls-23" d="M156.86,352.8c-42.27-50.87,140.37-133.11,114.57-202.23"/>
  <path class="cls-15" d="M158.1,371.69c-40.6-53.55,148.82-128.97,125.79-200.32"/>
  <path class="cls-17" d="M156.53,390.8c-38.93-56.22,157.26-124.83,137.02-198.41"/>
  <path class="cls-20" d="M152.48,409.88c-37.27-58.9,165.71-120.69,148.25-196.5"/>
  <path class="cls-1" d="M146.32,428.72c-35.6-61.58,174.16-116.55,159.47-194.6"/>
  <path class="cls-2" d="M138.38,447.07c-33.93-64.25,182.6-112.41,170.7-192.69"/>
  <path class="cls-10" d="M129.01,464.69c-32.26-66.93,191.05-108.27,181.92-190.78"/>
  <path class="cls-21" d="M118.55,481.36c-30.6-69.6,199.49-104.13,193.15-188.87"/>
  <path class="cls-16" d="M107.35,496.83c-28.93-72.28,207.94-99.99,204.38-186.96"/>
  <path class="cls-5" d="M95.75,510.88c-27.26-74.96,216.39-95.85,215.6-185.05"/>
  <path class="cls-14" d="M84.1,523.26c-25.6-77.63,224.83-91.71,226.83-183.14"/>
  <path class="cls-18" d="M72.77,533.74c-23.93-80.31,233.28-87.57,238.05-181.24"/>
  <path class="cls-9" d="M62.09,542.09c-22.26-82.99,241.72-83.43,249.28-179.33"/>
  <path class="cls-11" d="M52.41,548.08c-20.59-85.66,250.17-79.29,260.51-177.42"/>
  <path class="cls-3" d="M44.07,551.46c-18.93-88.34,258.62-75.15,271.73-175.51"/>
  <path class="cls-4" d="M37.42,552c-17.26-91.01,267.06-71.01,282.96-173.6"/>
  <rect class="cls-12" x="48.3" y="185.57" width="242.12" height="347.47" transform="translate(19.44 -8.54) rotate(3.06)"/>
  <rect class="cls-12" x="50.25" y="185.57" width="242.12" height="347.47"/>
</svg>